<?xml version="1.0" encoding="UTF-8"?>
<svg version="1.1" xmlns="http://www.w3.org/2000/svg" width="2120" height="2120">
<g transform="translate(0 120) 
              rotate(-45) 
              scale(0.07)">
<path d="M0 0 C699.6 0 1399.2 0 2120 0 C2120 699.6 2120 1399.2 2120 2120 C1420.4 2120 720.8 2120 0 2120 C0 1420.4 0 720.8 0 0 Z " fill="#FEFEFE" transform="translate(0,0)"/>
<path d="M0 0 C699.6 0 1399.2 0 2120 0 C2120 699.6 2120 1399.2 2120 2120 C1420.4 2120 720.8 2120 0 2120 C0 1420.4 0 720.8 0 0 Z M168 168 C168 756.72 168 1345.44 168 1952 C756.72 1952 1345.44 1952 1952 1952 C1952 1363.28 1952 774.56 1952 168 C1363.28 168 774.56 168 168 168 Z " fill="#FF1A25" transform="translate(0,0)"/>
<path d="M0 0 C12.74676425 11.51384277 24.55582795 23.77388001 35.13134766 37.32714844 C35.56737305 37.87999512 36.00339844 38.4328418 36.45263672 39.00244141 C59.65500567 68.54958602 76.62152415 101.30093753 87.13134766 137.32714844 C87.43814453 138.35582031 87.74494141 139.38449219 88.06103516 140.44433594 C94.5133461 163.92542627 96.21933844 190.63704234 90.13134766 214.32714844 C89.9326709 215.12169434 89.73399414 215.91624023 89.52929688 216.73486328 C82.44070389 244.37241121 67.42109403 265.03334997 43.69165039 280.84912109 C37.78381967 284.80339399 32.13899741 289.05431893 26.50634766 293.38964844 C20.7768521 297.7960482 15.04862248 302.17541124 9.13134766 306.32714844 C3.17870726 310.50660442 -2.59669725 314.902255 -8.36865234 319.32714844 C-14.66473763 324.15385031 -20.98968779 328.90124113 -27.48193359 333.45996094 C-32.88180281 337.27907219 -38.12014851 341.30365125 -43.36865234 345.32714844 C-49.69427281 350.17531708 -56.04740707 354.95020599 -62.56323242 359.5390625 C-67.63275799 363.12347088 -72.59621356 366.84300688 -77.55615234 370.57714844 C-84.15769522 375.54707419 -90.77525328 380.49270499 -97.43115234 385.38964844 C-98.21208252 385.96440918 -98.9930127 386.53916992 -99.79760742 387.13134766 C-103.71030159 390.00919625 -107.62631109 392.88247729 -111.54443359 395.75292969 C-120.90287015 402.61792512 -130.16924223 409.58997825 -139.38378906 416.64697266 C-144.68018287 420.69229629 -150.02967529 424.63121475 -155.4831543 428.4609375 C-160.88276796 432.27950126 -166.12056901 436.3039736 -171.36865234 440.32714844 C-177.69427281 445.17531708 -184.04740707 449.95020599 -190.56323242 454.5390625 C-196.50807412 458.74236321 -202.31015114 463.13270136 -208.12573242 467.51220703 C-213.93124506 471.88157008 -219.76300468 476.21273516 -225.61865234 480.51464844 C-231.3909933 484.75632361 -237.14486781 489.02016353 -242.86865234 493.32714844 C-248.6162755 497.6506455 -254.38927581 501.9381107 -260.18115234 506.20214844 C-260.9779541 506.78883301 -261.77475586 507.37551758 -262.59570312 507.97998047 C-266.58075262 510.91240566 -270.56880318 513.84067625 -274.56005859 516.76464844 C-283.91345936 523.62550063 -293.17441365 530.5939388 -302.38378906 537.64697266 C-307.68018287 541.69229629 -313.02967529 545.63121475 -318.4831543 549.4609375 C-323.88276796 553.27950126 -329.12056901 557.3039736 -334.36865234 561.32714844 C-340.69427281 566.17531708 -347.04740707 570.95020599 -353.56323242 575.5390625 C-358.63275799 579.12347088 -363.59621356 582.84300688 -368.55615234 586.57714844 C-375.15769522 591.54707419 -381.77525328 596.49270499 -388.43115234 601.38964844 C-389.21208252 601.96440918 -389.9930127 602.53916992 -390.79760742 603.13134766 C-394.71030159 606.00919625 -398.62631109 608.88247729 -402.54443359 611.75292969 C-411.90287015 618.61792512 -421.16924223 625.58997825 -430.38378906 632.64697266 C-435.68018287 636.69229629 -441.02967529 640.63121475 -446.4831543 644.4609375 C-451.88276796 648.27950126 -457.12056901 652.3039736 -462.36865234 656.32714844 C-468.68923986 661.17145965 -475.03690367 665.9432755 -481.54785156 670.52807617 C-489.36451587 676.05444175 -496.97236113 681.86726561 -504.61572266 687.62939453 C-508.45620042 690.52348669 -512.30416644 693.4075112 -516.15771484 696.28417969 C-518.03998697 697.7026643 -519.90894867 699.13891605 -521.76708984 700.58886719 C-536.50088463 711.97758783 -552.61770432 720.24434377 -570.86865234 724.32714844 C-571.72845703 724.53210937 -572.58826172 724.73707031 -573.47412109 724.94824219 C-600.95215864 730.56786905 -631.36597936 724.44860278 -654.86865234 709.32714844 C-680.77696412 692.09999852 -698.02056962 665.95279432 -704.68115234 635.62792969 C-709.36495685 606.06141374 -703.84998647 575.2737717 -686.58251953 550.48046875 C-683.94111182 546.92525555 -681.13211579 543.51379105 -678.31005859 540.1015625 C-675.80280407 537.01505744 -673.43219469 533.82758701 -671.05615234 530.63964844 C-670.56123291 529.97739258 -670.06631348 529.31513672 -669.55639648 528.6328125 C-662.12749458 518.67378595 -654.77375814 508.65848292 -647.43115234 498.63574219 C-641.24178826 490.19778126 -634.98088764 481.82324264 -628.61865234 473.51464844 C-623.85456502 467.292477 -619.16821846 461.03804028 -614.65576172 454.63134766 C-611.07188418 449.56208617 -607.35247772 444.59916725 -603.61865234 439.63964844 C-598.64872659 433.03810556 -593.7030958 426.4205475 -588.80615234 419.76464844 C-587.94401123 418.59325317 -587.94401123 418.59325317 -587.06445312 417.39819336 C-584.18660454 413.48549919 -581.31332349 409.56948969 -578.44287109 405.65136719 C-572.24939297 397.20835035 -565.98484673 388.8284129 -559.61865234 380.51464844 C-554.85456502 374.292477 -550.16821846 368.03804028 -545.65576172 361.63134766 C-542.07188418 356.56208617 -538.35247772 351.59916725 -534.61865234 346.63964844 C-529.64872659 340.03810556 -524.7030958 333.4205475 -519.80615234 326.76464844 C-518.94401123 325.59325317 -518.94401123 325.59325317 -518.06445312 324.39819336 C-515.18660454 320.48549919 -512.31332349 316.56948969 -509.44287109 312.65136719 C-503.24939297 304.20835035 -496.98484673 295.8284129 -490.61865234 287.51464844 C-485.85456502 281.292477 -481.16821846 275.03804028 -476.65576172 268.63134766 C-473.07188418 263.56208617 -469.35247772 258.59916725 -465.61865234 253.63964844 C-460.64872659 247.03810556 -455.7030958 240.4205475 -450.80615234 233.76464844 C-449.94401123 232.59325317 -449.94401123 232.59325317 -449.06445312 231.39819336 C-446.18660454 227.48549919 -443.31332349 223.56948969 -440.44287109 219.65136719 C-434.24939297 211.20835035 -427.98484673 202.8284129 -421.61865234 194.51464844 C-416.85456502 188.292477 -412.16821846 182.03804028 -407.65576172 175.63134766 C-404.07188418 170.56208617 -400.35247772 165.59916725 -396.61865234 160.63964844 C-391.64872659 154.03810556 -386.7030958 147.4205475 -381.80615234 140.76464844 C-381.2313916 139.98371826 -380.65663086 139.20278809 -380.06445312 138.39819336 C-377.18660454 134.48549919 -374.31332349 130.56948969 -371.44287109 126.65136719 C-365.24939297 118.20835035 -358.98484673 109.8284129 -352.61865234 101.51464844 C-347.85456502 95.292477 -343.16821846 89.03804028 -338.65576172 82.63134766 C-335.07188418 77.56208617 -331.35247772 72.59916725 -327.61865234 67.63964844 C-322.64872659 61.03810556 -317.7030958 54.4205475 -312.80615234 47.76464844 C-312.2313916 46.98371826 -311.65663086 46.20278809 -311.06445312 45.39819336 C-308.18660454 41.48549919 -305.31332349 37.56948969 -302.44287109 33.65136719 C-296.2493916 25.20834848 -289.98476679 16.82847564 -283.61865234 8.51464844 C-277.95599032 1.11753177 -272.45139405 -6.36217234 -267.078125 -13.97070312 C-245.63923418 -44.14267462 -224.3229956 -64.12594627 -187.05615234 -71.41894531 C-117.57895813 -81.91289652 -50.10956656 -44.85899531 0 0 Z " fill="#060808" transform="translate(1606.86865234375,507.6728515625)"/>
<path d="M0 0 C20.62083388 18.2146689 36.03448304 41.94746895 44.8671875 67.9609375 C45.17672363 68.86384521 45.48625977 69.76675293 45.80517578 70.69702148 C51.07419286 87.07567083 53.20843596 103.18721328 52.9921875 120.3359375 C52.98565155 121.22863342 52.9791156 122.12132935 52.97238159 123.04107666 C52.59246305 167.46133035 36.39148887 212.17378667 4.6171875 244.0859375 C3.58089138 245.0707863 2.53990872 246.05075202 1.4921875 247.0234375 C0.6878125 247.8278125 -0.1165625 248.6321875 -0.9453125 249.4609375 C-1.7909375 250.3065625 -2.6365625 251.1521875 -3.5078125 252.0234375 C-4.01054688 252.57257813 -4.51328125 253.12171875 -5.03125 253.6875 C-20.54899479 270.15392787 -41.09720009 280.92760725 -61.5078125 290.0234375 C-62.57 290.50683594 -63.6321875 290.99023438 -64.7265625 291.48828125 C-102.91404041 307.55371214 -149.85866713 307.46598142 -188.19091797 292.15136719 C-192.01207715 290.54072468 -195.77141774 288.8212987 -199.5078125 287.0234375 C-200.51811523 286.54003906 -200.51811523 286.54003906 -201.54882812 286.046875 C-238.93439054 267.85330753 -267.62388245 234.67730923 -281.484375 195.6171875 C-296.74206681 149.99127958 -292.11525926 103.00015883 -271.125 60.11328125 C-260.57610314 39.09469283 -245.74832236 18.98542435 -227.5078125 4.0234375 C-227.00572266 3.59836914 -226.50363281 3.17330078 -225.98632812 2.73535156 C-160.87071046 -52.35957 -65.51073238 -56.29538262 0 0 Z " fill="#060808" transform="translate(858.5078125,1263.9765625)"/>
</g>
</svg>
