<?xml version="1.0" encoding="UTF-8"?>
<svg version="1.1" xmlns="http://www.w3.org/2000/svg" width="2121" height="2121">
<g transform="translate(0 120) 
              rotate(-45) 
              scale(0.07)">
<path d="M0 0 C699.93 0 1399.86 0 2121 0 C2121 699.93 2121 1399.86 2121 2121 C1421.07 2121 721.14 2121 0 2121 C0 1421.07 0 721.14 0 0 Z " fill="#FEFEFE" transform="translate(0,0)"/>
<path d="M0 0 C699.93 0 1399.86 0 2121 0 C2121 699.93 2121 1399.86 2121 2121 C1421.07 2121 721.14 2121 0 2121 C0 1421.07 0 721.14 0 0 Z M168 168 C168 757.05 168 1346.1 168 1953 C757.05 1953 1346.1 1953 1953 1953 C1953 1363.95 1953 774.9 1953 168 C1363.95 168 774.9 168 168 168 Z " fill="#FF1A25" transform="translate(0,0)"/>
<path d="M0 0 C2.10894686 1.24942088 4.21833737 2.49809314 6.328125 3.74609375 C7.94557617 4.70684814 7.94557617 4.70684814 9.59570312 5.68701172 C14.95591953 8.85477511 20.35302537 11.9579158 25.75 15.0625 C27.93494605 16.32152744 30.11984166 17.58064242 32.3046875 18.83984375 C33.38975586 19.46487793 34.47482422 20.08991211 35.59277344 20.73388672 C41.02159946 23.86180151 46.44816556 26.99363163 51.875 30.125 C52.94878906 30.74439453 54.02257812 31.36378906 55.12890625 32.00195312 C60.52187516 35.11278333 65.91406364 38.22495149 71.3046875 41.33984375 C83.11129484 48.16002637 94.93527 54.9482326 106.77972412 61.70236206 C115.81971708 66.85916608 124.82025321 72.08043769 133.80175781 77.33837891 C141.42405778 81.79416344 149.08031311 86.18897146 156.75 90.5625 C169.07525196 97.59103507 181.37222067 104.66740434 193.65722656 111.76611328 C199.06170645 114.88824605 204.46847412 118.00641204 209.875 121.125 C212.0416775 122.37498122 214.20834417 123.62498121 216.375 124.875 C217.98375 125.803125 217.98375 125.803125 219.625 126.75 C307.375 177.375 307.375 177.375 310.62451172 179.24975586 C312.79276264 180.5006448 314.96105697 181.75145852 317.12939453 183.00219727 C322.52217915 186.11298335 327.91422093 189.22504238 333.3046875 192.33984375 C345.11129484 199.16002637 356.93527 205.9482326 368.77972412 212.70236206 C377.81971708 217.85916608 386.82025321 223.08043769 395.80175781 228.33837891 C403.42405778 232.79416344 411.08031311 237.18897146 418.75 241.5625 C431.07525196 248.59103507 443.37222067 255.66740434 455.65722656 262.76611328 C461.06170645 265.88824605 466.46847412 269.00641204 471.875 272.125 C474.0416775 273.37498122 476.20834417 274.62498121 478.375 275.875 C479.4475 276.49375 480.52 277.1125 481.625 277.75 C569.375 328.375 569.375 328.375 572.62451172 330.24975586 C574.79276264 331.5006448 576.96105697 332.75145852 579.12939453 334.00219727 C584.52217915 337.11298335 589.91422093 340.22504238 595.3046875 343.33984375 C607.11129484 350.16002637 618.93527 356.9482326 630.77972412 363.70236206 C639.81971708 368.85916608 648.82025321 374.08043769 657.80175781 379.33837891 C665.42405778 383.79416344 673.08031311 388.18897146 680.75 392.5625 C693.07525196 399.59103507 705.37222067 406.66740434 717.65722656 413.76611328 C723.06170645 416.88824605 728.46847412 420.00641204 733.875 423.125 C736.0416775 424.37498122 738.20834417 425.62498121 740.375 426.875 C741.4475 427.49375 742.52 428.1125 743.625 428.75 C774.5 446.5625 774.5 446.5625 805.375 464.375 C806.98507935 465.3038501 806.98507935 465.3038501 808.62768555 466.25146484 C810.78549803 467.49641282 812.94321353 468.7415289 815.10083008 469.98681641 C820.65216592 473.19052651 826.20536541 476.3909363 831.76171875 479.5859375 C837.20725845 482.71757886 842.64537929 485.86179645 848.08007812 489.01220703 C850.53061115 490.42627247 852.98955954 491.82367344 855.453125 493.21484375 C874.43661767 504.04898594 885.90114043 518.69785744 891.875 539.625 C892.14932861 540.52428223 892.42365723 541.42356445 892.70629883 542.35009766 C896.14223795 555.44616908 895.0321011 568.98042995 894.73803711 582.39746094 C894.31177042 603.52439935 895.40459489 622.38711819 910.7109375 638.58203125 C917.37570765 644.873863 925.33284371 649.08812458 933.31640625 653.4543457 C939.69360448 656.94364672 945.98059234 660.57093714 952.25 664.25 C961.09222387 669.43344618 969.9691379 674.55202512 978.875 679.625 C988.55000363 685.13729856 998.1878259 690.70924832 1007.796875 696.3359375 C1015.4607377 700.81666146 1023.16178835 705.23006752 1030.875 709.625 C1040.54411877 715.13439428 1050.17804867 720.70005509 1059.77929688 726.32714844 C1066.3950736 730.19770751 1073.04343423 734.00659223 1079.70849609 737.79125977 C1098.17123908 748.27726177 1098.17123908 748.27726177 1106.25 753.1875 C1106.85521484 753.54424805 1107.46042969 753.90099609 1108.08398438 754.26855469 C1114.1402718 758.02485319 1118.5501943 763.22266485 1121.625 769.625 C1122.01171875 770.40875 1122.3984375 771.1925 1122.796875 772 C1128.14336536 785.01754175 1127.32774325 800.54532245 1122.125 813.49121094 C1114.73500817 831.01678185 1102.92117104 842.81071309 1085.515625 850.6796875 C1080.66569705 852.41590431 1075.81122188 852.81656743 1070.6875 852.9375 C1069.66269531 852.97488281 1068.63789062 853.01226563 1067.58203125 853.05078125 C1058.06097611 851.95721433 1050.00356074 847.26418904 1041.9375 842.375 C1039.82502725 841.11843146 1037.71171067 839.8632807 1035.59765625 838.609375 C1034.5008252 837.95646484 1033.40399414 837.30355469 1032.27392578 836.63085938 C1027.09730388 833.57590135 1021.87442196 830.60355313 1016.64889526 827.63342285 C1007.35866487 822.35211859 998.09695901 817.02489229 988.875 811.625 C980.2798271 806.5931021 971.65187778 801.62110876 963 796.6875 C950.67474804 789.65896493 938.37777933 782.58259566 926.09277344 775.48388672 C922.85675371 773.61445924 919.61994423 771.74640745 916.3828125 769.87890625 C915.30805664 769.25886719 914.23330078 768.63882813 913.12597656 768 C910.96929301 766.75613325 908.81239406 765.51263989 906.65527344 764.26953125 C901.64607834 761.3820025 896.63928134 758.49059875 891.64215088 755.58224487 C889.89229819 754.56411289 888.14159057 753.54746667 886.390625 752.53125 C884.20923929 751.26463894 882.02941975 749.9953247 879.8515625 748.72265625 C862.93191988 738.91100782 846.43422825 730.95211034 826.375 735.6875 C815.8777074 739.007288 806.96273067 744.35964809 798.19824219 750.85058594 C776.91857245 766.41616051 751.28335816 774.06119073 725.06640625 771.2109375 C711.3580246 768.61476116 699.7143954 760.64253909 687.875 753.625 C685.89055739 752.46663259 683.90491277 751.31032149 681.91796875 750.15625 C677.97565267 747.86489384 674.03895531 745.56428925 670.10546875 743.2578125 C663.39038943 739.33022578 656.63447371 735.475393 649.875 731.625 C640.2000039 726.11268825 630.56217423 720.54075176 620.953125 714.9140625 C613.2892623 710.43333854 605.58821165 706.01993248 597.875 701.625 C588.20018781 696.11236165 578.56217863 690.54075433 568.953125 684.9140625 C561.2892623 680.43333854 553.58821165 676.01993248 545.875 671.625 C536.20018781 666.11236165 526.56217863 660.54075433 516.953125 654.9140625 C509.2892623 650.43333854 501.58821165 646.01993248 493.875 641.625 C484.20018781 636.11236165 474.56217863 630.54075433 464.953125 624.9140625 C457.2892623 620.43333854 449.58821165 616.01993248 441.875 611.625 C433.18098314 606.67121177 424.51002771 601.68121631 415.875 596.625 C407.2798271 591.5931021 398.65187778 586.62110876 390 581.6875 C377.67474804 574.65896493 365.37777933 567.58259566 353.09277344 560.48388672 C347.68829355 557.36175395 342.28152588 554.24358796 336.875 551.125 C334.7083225 549.87501878 332.54165583 548.62501879 330.375 547.375 C329.3025 546.75625 328.23 546.1375 327.125 545.5 C219.875 483.625 112.625 421.75 -98.625 299.875 C-99.69766113 299.25616943 -100.77032227 298.63733887 -101.87548828 297.99975586 C-104.04057071 296.75064482 -106.20560982 295.50145871 -108.37060547 294.25219727 C-113.81115706 291.11297691 -119.25247216 287.97509437 -124.6953125 284.83984375 C-130.09812491 281.72751546 -135.49701479 278.60845018 -140.89501953 275.48779297 C-144.18514528 273.59031304 -147.48097654 271.70301853 -150.77734375 269.81640625 C-152.91420468 268.58618443 -155.05092869 267.35572475 -157.1875 266.125 C-158.1563916 265.57384521 -159.1252832 265.02269043 -160.12353516 264.45483398 C-177.46318756 254.42992018 -188.93978988 241.75044919 -195.4375 222.625 C-195.68000488 221.9141626 -195.92250977 221.2033252 -196.17236328 220.47094727 C-199.98249008 208.56800344 -200.53198592 196.64373477 -200.5 184.25 C-200.49945618 183.4564209 -200.49891235 182.6628418 -200.49835205 181.84521484 C-200.45720475 168.75444807 -199.48931864 156.32959665 -196.125 143.625 C-195.90005859 142.77067383 -195.67511719 141.91634766 -195.44335938 141.03613281 C-193.85674535 135.16828342 -192.06220361 129.38589222 -190.125 123.625 C-189.89586914 122.93776855 -189.66673828 122.25053711 -189.43066406 121.54248047 C-180.76386926 95.98864355 -167.38460582 71.37594533 -150.125 50.625 C-148.92423828 49.12259766 -148.92423828 49.12259766 -147.69921875 47.58984375 C-111.50468023 2.86827109 -55.41531641 -33.34664208 0 0 Z " fill="#060808" transform="translate(637.125,559.375)"/>
</g>
</svg>
