<?xml version="1.0" encoding="UTF-8"?>
<svg version="1.1" xmlns="http://www.w3.org/2000/svg" width="2120" height="2120">
<g transform="translate(0 120) 
              rotate(-45) 
              scale(0.07)">
<path d="M0 0 C699.6 0 1399.2 0 2120 0 C2120 699.6 2120 1399.2 2120 2120 C1420.4 2120 720.8 2120 0 2120 C0 1420.4 0 720.8 0 0 Z " fill="#FEFEFE" transform="translate(0,0)"/>
<path d="M0 0 C699.6 0 1399.2 0 2120 0 C2120 699.6 2120 1399.2 2120 2120 C1420.4 2120 720.8 2120 0 2120 C0 1420.4 0 720.8 0 0 Z M168 168 C168 756.72 168 1345.44 168 1952 C756.72 1952 1345.44 1952 1952 1952 C1952 1363.28 1952 774.56 1952 168 C1363.28 168 774.56 168 168 168 Z " fill="#FF1A25" transform="translate(0,0)"/>
<path d="M0 0 C10.42726018 0.52067791 20.66927199 1.471171 31 3 C29.24839722 14.76166488 26.69385299 26.36767009 24.25 38 C23.79430146 40.17754397 23.338736 42.35511579 22.88330078 44.53271484 C20.35171537 56.62421874 17.79826737 68.71078653 15.19287109 80.78662109 C13.77681998 87.35394482 12.38070525 93.92517116 11 100.5 C10.73680466 101.75301407 10.73680466 101.75301407 10.46829224 103.03134155 C9.60730684 107.13205192 8.74779476 111.23306515 7.89013672 115.33447266 C7.57015897 116.86103866 7.25001115 118.38756903 6.9296875 119.9140625 C6.77402313 120.65733795 6.61835876 121.4006134 6.45797729 122.16641235 C5.624654 126.12168375 4.76412599 130.0691577 3.86816406 134.01074219 C3.6826297 134.82940765 3.49709534 135.64807312 3.30593872 136.49154663 C2.94956485 138.05642893 2.58947582 139.62047141 2.22506714 141.1835022 C1.45156632 144.57841112 1 147.49559592 1 151 C11.36259827 145.86655996 21.71463738 140.71992902 31.9375 135.3125 C32.6706543 134.93101807 33.40380859 134.54953613 34.15917969 134.15649414 C38.71075646 131.7796536 43.20891222 129.32680665 47.67582703 126.79536438 C50.43245872 125.24314508 53.20709183 123.72492945 55.98464966 122.21054077 C57.35917452 121.45109696 58.72589109 120.67732876 60.08395386 119.88882446 C70.84497964 113.65383415 70.84497964 113.65383415 75.76464844 114.4440918 C78.42261417 115.72978959 80.62960051 117.24214046 83 119 C84.84939724 120.09973528 86.70645124 121.18667966 88.5703125 122.26171875 C90.42465056 123.39913315 92.27620787 124.54109308 94.125 125.6875 C95.55972656 126.55858398 95.55972656 126.55858398 97.0234375 127.44726562 C97.92578125 128.00478516 98.828125 128.56230469 99.7578125 129.13671875 C100.5739502 129.63905029 101.39008789 130.14138184 102.23095703 130.65893555 C102.81474121 131.10148682 103.39852539 131.54403809 104 132 C104 132.66 104 133.32 104 134 C101.63864415 135.78881217 99.26355673 137.46623138 96.8125 139.125 C87.08089717 145.84642128 77.70226565 152.99282664 68.33251953 160.20654297 C66.33954427 161.73892692 64.34179552 163.26453566 62.33984375 164.78515625 C46.57582415 176.79862843 31.158136 189.37642175 16.51171875 202.734375 C14.45752664 204.58730101 12.3790156 206.39964261 10.28515625 208.20703125 C-6.18453562 222.60720286 -21.24012121 238.09184128 -30.62890625 258.03125 C-33.81449333 264.79178971 -37.26255312 271.42113145 -40.6875 278.0625 C-41.03548645 278.7383313 -41.3834729 279.4141626 -41.74200439 280.11047363 C-46.69400522 289.7148911 -51.82572803 299.18992123 -57.20361328 308.56420898 C-61.28407018 315.68516688 -65.19560733 322.88607541 -69.0625 330.125 C-73.73643569 338.86183227 -78.5169461 347.52068086 -83.46557617 356.10473633 C-87.32919901 362.80758967 -91.11057557 369.55350508 -94.875 376.3125 C-100.05567897 385.60191955 -105.36426279 394.80767895 -110.74951172 403.97973633 C-114.92220672 411.10474398 -118.98470852 418.28525967 -123 425.5 C-129.29592846 436.80963195 -135.77936337 448.00214552 -142.33544922 459.16259766 C-145.23350211 464.10263443 -148.11627088 469.05159229 -151 474 C-140.99106796 472.77601724 -131.10696979 471.18944234 -121.2013855 469.31488037 C-117.07216087 468.53411344 -112.94026127 467.76771594 -108.80859375 467 C-107.93834061 466.83805145 -107.06808746 466.67610291 -106.17146301 466.50924683 C-96.73209325 464.75672241 -87.28168062 463.06715931 -77.82891846 461.38858032 C-74.95262501 460.87768654 -72.0766503 460.36502441 -69.20068359 459.85229492 C-60.7672452 458.3522404 -52.33183416 456.87467225 -43.87890625 455.48828125 C-42.51634602 455.26260137 -41.15379676 455.03685525 -39.79125977 454.81103516 C-37.34926093 454.4094082 -34.90580932 454.01646902 -32.46069336 453.63427734 C-31.40116455 453.45977051 -30.34163574 453.28526367 -29.25 453.10546875 C-28.34765625 452.96262451 -27.4453125 452.81978027 -26.515625 452.67260742 C-20.81475223 451.14835427 -17.16778675 447.39535593 -13.1875 443.25 C-9.83222018 439.8162371 -6.49368916 436.46483347 -2.8125 433.375 C1.04261444 430.09219121 4.30920504 426.39979599 7.6484375 422.6015625 C10.0127824 419.98585868 12.47611758 417.5238714 15 415.0625 C19.20451001 410.90333909 22.96078051 406.53405047 26.65234375 401.91796875 C29.21582069 398.73175032 31.84829071 395.61269664 34.5 392.5 C37.92390112 388.47530002 41.29983402 384.41971722 44.625 380.3125 C48.25242334 375.85595133 52.02937087 371.56741741 55.89453125 367.31640625 C59.88610693 362.92493245 63.77795099 358.44962798 67.609375 353.91796875 C73.61051867 346.83621374 79.7693589 339.95094463 86.13232422 333.19189453 C89.57771055 329.53123163 92.95099097 325.83036746 96.23046875 322.01953125 C98.60884382 319.30513851 101.05507182 316.65425983 103.5 314 C106.51930769 310.7214895 109.5220225 307.43418914 112.4375 304.0625 C116.02004809 299.93011239 119.73967128 295.9290721 123.45678711 291.91821289 C126.49741594 288.63497817 129.51412496 285.33332232 132.5 282 C136.47530054 277.56379505 140.51207668 273.18745602 144.55859375 268.81640625 C148.29291637 264.77801665 151.97847269 260.69857776 155.6484375 256.6015625 C158.44932436 253.50290693 161.28579918 250.43850998 164.125 247.375 C168.49945455 242.65348699 172.80821548 237.88549534 177 233 C180.66752005 234.5391801 182.98580573 236.75485452 185.765625 239.5703125 C186.65507813 240.46621094 187.54453125 241.36210937 188.4609375 242.28515625 C189.38132812 243.22230469 190.30171875 244.15945313 191.25 245.125 C192.19484856 246.07988637 193.14015633 247.03431859 194.0859375 247.98828125 C196.39518338 250.32109087 198.69963203 252.65844086 201 255 C197.41709723 260.52911305 193.69417998 265.79650496 189.5 270.875 C184.8705002 276.56874424 180.45000661 282.38456537 176.125 288.3125 C170.97850131 295.361751 165.70511287 302.29053901 160.32080078 309.15942383 C155.97255164 314.71847822 151.71977421 320.34294181 147.5 326 C142.03244502 333.32815578 136.4729726 340.57588159 130.84326172 347.7800293 C127.02202287 352.67358226 123.26489282 357.60840966 119.55859375 362.58984375 C117.40527291 365.47331882 115.22164528 368.33301409 113.03515625 371.19140625 C112.32085449 372.12557373 111.60655273 373.05974121 110.87060547 374.0222168 C109.44272918 375.88810076 108.01342465 377.75289284 106.58251953 379.61645508 C103.23606687 383.99174056 99.97609428 388.36371945 97 393 C97.66 392.67 98.32 392.34 99 392 C100.77415545 391.78575238 102.55493943 391.6254882 104.33691406 391.4909668 C105.46595657 391.40369324 106.59499908 391.31641968 107.758255 391.22650146 C108.9981871 391.13499817 110.2381192 391.04349487 111.515625 390.94921875 C113.45449837 390.80120819 113.45449837 390.80120819 115.43254089 390.65020752 C118.96652614 390.38058165 122.50088866 390.11623813 126.0353508 389.85294724 C129.75042208 389.5754097 133.46515262 389.29338022 137.17993164 389.01196289 C143.98113348 388.49749653 150.78266439 387.98753169 157.58436108 387.47965336 C163.36085287 387.04821048 169.13705298 386.61296569 174.91319275 386.17683411 C201.85289295 384.14459236 228.7995994 382.22623123 255.75366211 380.39428711 C256.88699478 380.31707932 258.02032745 380.23987152 259.18800354 380.1603241 C261.43181561 380.00749708 263.67566093 379.85515745 265.91954041 379.70332336 C271.69820521 379.30881346 277.47407838 378.89065175 283.24853516 378.43847656 C284.44533401 378.3457547 285.64213287 378.25303284 286.87519836 378.15750122 C289.13302106 377.98127509 291.39053561 377.80102797 293.64762878 377.61569214 C301.11141575 377.03484901 308.51502215 376.90322933 316 377 C314.65548831 378.56043492 313.3102715 380.12026451 311.96289062 381.67822266 C310.54900594 383.35061611 309.1657684 385.04909258 307.80273438 386.76318359 C298.1973864 398.67389187 289.29824691 409.00424913 273.4375 410.89892578 C267.61149836 411.42029415 261.77777709 411.67298784 255.93212891 411.83544922 C250.60570908 412.05834795 245.48732664 412.86265738 240.25 413.8125 C238.25319808 414.15066128 236.25575807 414.48506886 234.2578125 414.81640625 C232.59347168 415.09315186 232.59347168 415.09315186 230.89550781 415.37548828 C226.18310375 416.13096143 221.46372002 416.8315946 216.7421875 417.52734375 C121.38716569 425.68060264 121.38716569 425.68060264 41 466 C38.98565172 468.73320985 37.05041554 471.516176 35.125 474.3125 C30.63857 480.73878347 26.07014215 487.01556992 21 493 C19.99453125 494.2065625 19.99453125 494.2065625 18.96875 495.4375 C8.13818424 507.99467769 -4.5687948 517.02540965 -19 525 C-19.71397949 525.39477539 -20.42795898 525.78955078 -21.16357422 526.19628906 C-38.47623177 535.52061134 -57.40647867 541.68949218 -75.84747314 548.36271667 C-81.6139701 550.45773079 -87.31559148 552.69177511 -93 555 C-91.89301758 555.01981934 -90.78603516 555.03963867 -89.64550781 555.06005859 C-8.87943787 556.5571879 -8.87943787 556.5571879 16.63671875 582.62890625 C19.28437732 585.28531741 22.04599011 587.7399079 24.8984375 590.171875 C26.43131207 591.50530492 27.93262122 592.87527558 29.4140625 594.265625 C58.47080755 621.52239469 86.50333713 628.21684667 125.25 628.1875 C126.9084343 628.18808914 126.9084343 628.18808914 128.60037231 628.18869019 C161.47984673 628.17494544 194.37319023 627.01814879 227.20677185 625.30702209 C234.1422038 624.95528632 241.05539695 624.89495558 248 625 C249.70236761 630.85188866 250.20403472 635.92635232 250 642 C238.10172692 645.07256259 226.14517272 647.76275387 214.125 650.3125 C212.27105107 650.70804686 210.41712898 651.1037195 208.56323242 651.49951172 C196.45533237 654.07923557 184.33290376 656.58297459 172.20263672 659.05496216 C162.64947547 661.00490065 153.12880123 663.07047521 143.625 665.25 C127.44920555 668.95744174 111.21396875 672.37542496 94.97314453 675.78515625 C84.12527484 678.06382218 73.28337233 680.36310191 62.45703125 682.7421875 C60.499782 683.17020419 58.54250725 683.59810428 56.58520508 684.02587891 C53.81506645 684.63142308 51.04573044 685.2397823 48.27841187 685.85809326 C45.77057283 686.41834683 43.26062821 686.96803021 40.75 687.515625 C40.01711258 687.68270966 39.28422516 687.84979431 38.52912903 688.02194214 C32.23693266 689.3758408 32.23693266 689.3758408 29 688 C26.984375 686.3203125 26.984375 686.3203125 24.75 684.125 C7.29437556 668.00030293 -16.75544714 652.76050635 -41.0703125 652.8515625 C-42.43882858 652.85478012 -42.43882858 652.85478012 -43.83499146 652.85806274 C-54.98723443 652.94129104 -66.11379566 653.54679211 -77.24658203 654.171875 C-80.86325639 654.37434257 -84.48036425 654.56673247 -88.09765625 654.7578125 C-99.94207963 655.39751455 -111.75352248 656.18509832 -123.56599426 657.26486206 C-132.34087107 658.05803724 -141.12284227 658.62106245 -149.91821289 659.1315918 C-154.14052497 659.37683705 -158.35792171 659.66143504 -162.57592773 659.97192383 C-180.60979316 661.25472038 -180.60979316 661.25472038 -189.4375 660.23046875 C-197.99928657 659.30059567 -206.49700072 660.16171897 -213.92227173 664.8419342 C-216.66651654 667.11718557 -219.19113881 669.50221627 -221.70703125 672.02734375 C-222.62263824 672.90643402 -223.53824524 673.78552429 -224.4815979 674.69125366 C-233.7563131 683.71224016 -242.48369333 693.26501961 -251 703 C-249.4492453 706.69288929 -247.20359518 709.05198525 -244.39056301 711.87508583 C-243.91651869 712.35353502 -243.44247436 712.83198421 -242.95406505 713.32493186 C-241.35816001 714.93318664 -239.75521119 716.53423041 -238.15220642 718.13540649 C-236.99740848 719.29608733 -235.84303953 720.45719513 -234.68906409 721.61869371 C-231.51166223 724.81418973 -228.32798514 728.00336917 -225.14322007 731.19152451 C-221.71144446 734.62905296 -218.28536829 738.07225423 -214.85845947 741.51463318 C-206.57963098 749.82822857 -198.29120637 758.13222566 -190.00187215 766.4353438 C-186.09972504 770.34445025 -182.19867814 774.25465426 -178.29754829 778.16477585 C-165.33169714 791.15983045 -152.36364295 804.15267941 -139.38849545 817.13845253 C-138.55793098 817.96970768 -137.72736652 818.80096284 -136.87163344 819.65740754 C-136.03906839 820.49066461 -135.20650334 821.32392168 -134.34870905 822.18242896 C-132.66158614 823.87096387 -130.97446763 825.55950318 -129.28735352 827.24804688 C-128.45048256 828.085623 -127.61361161 828.92319912 -126.75138093 829.78615634 C-113.18814196 843.36164862 -99.64024684 856.95234514 -86.0987845 870.54955609 C-72.20020015 884.50489453 -58.28852484 898.44707138 -44.36371619 912.37624395 C-36.54392915 920.19911504 -28.72996652 928.02761654 -20.93049431 935.87074661 C-14.28970503 942.54860291 -7.63712219 949.21441913 -0.96877467 955.86476137 C2.43363893 959.25871122 5.8301159 962.65809411 9.21157646 966.07293129 C12.30761546 969.19925821 15.41938073 972.30898138 18.54443269 975.40629952 C19.67177966 976.52930014 20.79324299 977.65824501 21.90810312 978.79364295 C27.82266343 984.81028526 32.28178159 989.2351202 41 990 C41.89775146 990.13438477 42.79550293 990.26876953 43.72045898 990.40722656 C44.47141846 990.48424805 45.22237793 990.56126953 45.99609375 990.640625 C111.39515293 997.94333918 176.30442387 1024.07420406 224 1070 C224.78552246 1070.75265137 224.78552246 1070.75265137 225.58691406 1071.52050781 C231.83417614 1077.53567347 237.62064535 1083.71047191 243.01953125 1090.515625 C244.80823653 1092.75944465 246.65963639 1094.91567952 248.5625 1097.0625 C251 1100 251 1100 251 1102 C229.54208331 1110.75060137 207.84181237 1117.91104498 185.4128418 1123.74267578 C184.38457275 1124.01063965 183.35630371 1124.27860352 182.296875 1124.5546875 C181.39291992 1124.78655762 180.48896484 1125.01842773 179.55761719 1125.25732422 C176.95569718 1126.01286456 174.49718951 1126.95266455 172 1128 C182.31744194 1133.95059617 192.79825671 1139.53076017 203.3815918 1144.9934082 C210.22194866 1148.53244046 217.00531801 1152.15722716 223.75 1155.875 C232.8713178 1160.89800669 242.09901449 1165.69756747 251.36001587 1170.45562744 C261.53356535 1175.68545645 271.60475557 1181.08393023 281.62109375 1186.609375 C285.04270863 1188.49283273 288.48980247 1190.28770852 292 1192 C291.00021348 1200.1303394 279.59048942 1207.55684163 273.4375 1212.4375 C246.76877693 1233.10048732 216.74893289 1247.89893584 185 1259 C184.17822266 1259.28858887 183.35644531 1259.57717773 182.50976562 1259.87451172 C161.57852109 1267.11826113 140.12179814 1271.19017129 118.25 1274.3125 C117.34957977 1274.44164795 116.44915955 1274.5707959 115.52145386 1274.70385742 C97.55683124 1277.2557447 79.88811067 1278.23765967 61.75 1278.25 C60.20197693 1278.25151062 60.20197693 1278.25151062 58.62268066 1278.25305176 C-9.58334701 1278.20832649 -9.58334701 1278.20832649 -26 1270 C-25.87995605 1270.61367432 -25.75991211 1271.22734863 -25.63623047 1271.85961914 C-22.76584513 1286.65574 -20.25126581 1301.47399736 -18 1316.375 C-16.27137137 1327.81214062 -14.49936755 1339.23143233 -12.5 1350.625 C-10.64900792 1361.20036009 -8.8412822 1371.78177264 -7.09960938 1382.37567139 C-6.82773895 1384.0244898 -6.55385657 1385.67297789 -6.27783203 1387.32110596 C-5.89200521 1389.62727125 -5.51348138 1391.93452633 -5.13671875 1394.2421875 C-4.96368477 1395.26375946 -4.96368477 1395.26375946 -4.78715515 1396.30596924 C-4.10034242 1400.57641688 -3.89817145 1404.6784105 -4 1409 C-11.62314318 1406.78979956 -19.13044624 1404.29885569 -26.6328125 1401.7109375 C-28.44980904 1401.08642448 -28.44980904 1401.08642448 -30.30351257 1400.44929504 C-33.57001909 1399.32616192 -36.83553802 1398.20018462 -40.10077286 1397.07336044 C-42.13081212 1396.37299481 -44.16111855 1395.67340887 -46.1914978 1394.97402954 C-71.84834824 1386.13469464 -97.44253316 1377.12287054 -123 1368 C-122.04785033 1369.28044872 -121.09418839 1370.559773 -120.13989258 1371.83862305 C-119.60898514 1372.55116745 -119.0780777 1373.26371185 -118.53108215 1373.99784851 C-116.70175296 1376.39000896 -114.73784447 1378.60770397 -112.6875 1380.8125 C-108.75784526 1385.11609517 -105.04915841 1389.55339144 -101.3828125 1394.08203125 C-98.79244152 1397.25417407 -96.15317133 1400.38043294 -93.5 1403.5 C-89.37875818 1408.34939906 -85.33008186 1413.25161371 -81.3125 1418.1875 C-78.2756723 1421.8809391 -75.18039045 1425.52298486 -72.08374023 1429.16625977 C-69.2045468 1432.55954109 -66.36795763 1435.98267786 -63.5625 1439.4375 C-60.10725849 1443.68392382 -56.57302166 1447.85296294 -53 1452 C-48.68615944 1457.00687049 -44.45966452 1462.07254879 -40.29296875 1467.203125 C-36.77223059 1471.49758585 -33.17386866 1475.72536933 -29.578125 1479.95703125 C-28.72734375 1480.96121094 -27.8765625 1481.96539063 -27 1483 C-26.52498047 1483.54446777 -26.04996094 1484.08893555 -25.56054688 1484.64990234 C-22 1488.78259054 -22 1488.78259054 -22 1491 C-22.86586227 1491.12306015 -23.73172455 1491.2461203 -24.62382507 1491.37290955 C-32.78993037 1492.53376745 -40.95584177 1493.69597791 -49.12153912 1494.85970211 C-53.31944588 1495.45791305 -57.51742535 1496.05560362 -61.71557617 1496.65209961 C-65.76818464 1497.22793578 -69.82059528 1497.80514584 -73.87287331 1498.38330269 C-75.41772327 1498.60346827 -76.96264348 1498.82314153 -78.50763512 1499.04231071 C-80.67414291 1499.34973323 -82.84039271 1499.65891662 -85.0065918 1499.96850586 C-86.23903122 1500.14393417 -87.47147064 1500.31936249 -88.74125671 1500.50010681 C-91.50685235 1500.92435085 -94.25638815 1501.45127763 -97 1502 C-76.87 1522.13 -56.74 1542.26 -36 1563 C-40.01574817 1568.35433089 -43.69816352 1572.94091462 -48.4375 1577.5 C-52.61100871 1581.58875547 -56.61048269 1585.71901295 -60.39453125 1590.17578125 C-62.80781466 1592.91788186 -65.4294709 1595.43824828 -68.03125 1598 C-69.93986455 1599.93891002 -71.72710552 1601.93699551 -73.5 1604 C-76.51228477 1607.5052041 -79.72034807 1610.74266758 -83.015625 1613.98046875 C-85.60600634 1616.61674268 -87.99014777 1619.40325935 -90.359375 1622.23828125 C-92.0938977 1624.10082825 -93.95096216 1625.49907715 -96 1627 C-100.43240459 1622.5924815 -104.86138646 1618.18156108 -109.28735352 1613.76757812 C-110.79066955 1612.26926293 -112.29488536 1610.77184993 -113.80004883 1609.27539062 C-115.9745947 1607.11309775 -118.1457871 1604.94748387 -120.31640625 1602.78125 C-120.98023819 1602.12257935 -121.64407013 1601.46390869 -122.32801819 1600.78527832 C-122.96815353 1600.14521851 -123.60828888 1599.50515869 -124.26782227 1598.84570312 C-124.82075455 1598.29499146 -125.37368683 1597.74427979 -125.94337463 1597.17687988 C-127.76023787 1595.25378145 -129.48725069 1593.2878204 -131.21434021 1591.28466797 C-135.0623431 1586.86643818 -139.14668568 1582.72664048 -143.30273438 1578.59960938 C-144.10205887 1577.80174515 -144.90138336 1577.00388092 -145.72492981 1576.18183899 C-147.44797393 1574.46257849 -149.17217157 1572.74447341 -150.89741516 1571.02742004 C-153.63270251 1568.30498045 -156.36478018 1565.57935569 -159.09606934 1562.85290527 C-164.89457492 1557.06578767 -170.69696904 1551.28257927 -176.5 1545.5 C-183.22830696 1538.79540569 -189.95490873 1532.08912059 -196.67732239 1525.37861633 C-199.36010066 1522.70228838 -202.04588891 1520.02900673 -204.73181152 1517.35583496 C-206.38711187 1515.70416947 -208.04227067 1514.05236211 -209.69726562 1512.40039062 C-210.8071862 1511.29821953 -210.8071862 1511.29821953 -211.93952942 1510.17378235 C-215.86957749 1506.24413127 -219.59264643 1502.21099226 -223.22214508 1498.00370026 C-226.43100202 1494.38721423 -229.87316603 1491.00523243 -233.30273438 1487.59960938 C-234.10205887 1486.80174515 -234.90138336 1486.00388092 -235.72492981 1485.18183899 C-237.44797393 1483.46257849 -239.17217157 1481.74447341 -240.89741516 1480.02742004 C-243.63270251 1477.30498045 -246.36478018 1474.57935569 -249.09606934 1471.85290527 C-254.89457492 1466.06578767 -260.69696904 1460.28257927 -266.5 1454.5 C-273.22830696 1447.79540569 -279.95490873 1441.08912059 -286.67732239 1434.37861633 C-289.36010066 1431.70228838 -292.04588891 1429.02900673 -294.73181152 1426.35583496 C-296.38711187 1424.70416947 -298.04227067 1423.05236211 -299.69726562 1421.40039062 C-300.8071862 1420.29821953 -300.8071862 1420.29821953 -301.93952942 1419.17378235 C-305.86957749 1415.24413127 -309.59264643 1411.21099226 -313.22214508 1407.00370026 C-316.43100202 1403.38721423 -319.87316603 1400.00523243 -323.30273438 1396.59960938 C-324.10205887 1395.80174515 -324.90138336 1395.00388092 -325.72492981 1394.18183899 C-327.44797393 1392.46257849 -329.17217157 1390.74447341 -330.89741516 1389.02742004 C-333.63270251 1386.30498045 -336.36478018 1383.57935569 -339.09606934 1380.85290527 C-344.89457492 1375.06578767 -350.69696904 1369.28257927 -356.5 1363.5 C-363.22830696 1356.79540569 -369.95490873 1350.08912059 -376.67732239 1343.37861633 C-379.36010066 1340.70228838 -382.04588891 1338.02900673 -384.73181152 1335.35583496 C-386.38711187 1333.70416947 -388.04227067 1332.05236211 -389.69726562 1330.40039062 C-390.8071862 1329.29821953 -390.8071862 1329.29821953 -391.93952942 1328.17378235 C-395.86957749 1324.24413127 -399.59264643 1320.21099226 -403.22214508 1316.00370026 C-406.43100202 1312.38721423 -409.87316603 1309.00523243 -413.30273438 1305.59960938 C-414.10205887 1304.80174515 -414.90138336 1304.00388092 -415.72492981 1303.18183899 C-417.44797393 1301.46257849 -419.17217157 1299.74447341 -420.89741516 1298.02742004 C-423.63270251 1295.30498045 -426.36478018 1292.57935569 -429.09606934 1289.85290527 C-434.89457492 1284.06578767 -440.69696904 1278.28257927 -446.5 1272.5 C-453.22830696 1265.79540569 -459.95490873 1259.08912059 -466.67732239 1252.37861633 C-469.36010066 1249.70228838 -472.04588891 1247.02900673 -474.73181152 1244.35583496 C-476.38711187 1242.70416947 -478.04227067 1241.05236211 -479.69726562 1239.40039062 C-480.8071862 1238.29821953 -480.8071862 1238.29821953 -481.93952942 1237.17378235 C-485.86957749 1233.24413127 -489.59264643 1229.21099226 -493.22214508 1225.00370026 C-496.43100202 1221.38721423 -499.87316603 1218.00523243 -503.30273438 1214.59960938 C-504.10205887 1213.80174515 -504.90138336 1213.00388092 -505.72492981 1212.18183899 C-507.44797393 1210.46257849 -509.17217157 1208.74447341 -510.89741516 1207.02742004 C-513.63270251 1204.30498045 -516.36478018 1201.57935569 -519.09606934 1198.85290527 C-524.89457492 1193.06578767 -530.69696904 1187.28257927 -536.5 1181.5 C-543.22830696 1174.79540569 -549.95490873 1168.08912059 -556.67732239 1161.37861633 C-559.36010066 1158.70228838 -562.04588891 1156.02900673 -564.73181152 1153.35583496 C-566.38711187 1151.70416947 -568.04227067 1150.05236211 -569.69726562 1148.40039062 C-570.8071862 1147.29821953 -570.8071862 1147.29821953 -571.93952942 1146.17378235 C-575.86957749 1142.24413127 -579.59264643 1138.21099226 -583.22214508 1134.00370026 C-586.43100202 1130.38721423 -589.87316603 1127.00523243 -593.30273438 1123.59960938 C-594.10205887 1122.80174515 -594.90138336 1122.00388092 -595.72492981 1121.18183899 C-597.44797393 1119.46257849 -599.17217157 1117.74447341 -600.89741516 1116.02742004 C-603.63270251 1113.30498045 -606.36478018 1110.57935569 -609.09606934 1107.85290527 C-614.89457492 1102.06578767 -620.69696904 1096.28257927 -626.5 1090.5 C-633.22830696 1083.79540569 -639.95490873 1077.08912059 -646.67732239 1070.37861633 C-649.36010066 1067.70228838 -652.04588891 1065.02900673 -654.73181152 1062.35583496 C-656.38711187 1060.70416947 -658.04227067 1059.05236211 -659.69726562 1057.40039062 C-660.8071862 1056.29821953 -660.8071862 1056.29821953 -661.93952942 1055.17378235 C-665.86957749 1051.24413127 -669.59264643 1047.21099226 -673.22214508 1043.00370026 C-676.43100202 1039.38721423 -679.87316603 1036.00523243 -683.30273438 1032.59960938 C-684.10205887 1031.80174515 -684.90138336 1031.00388092 -685.72492981 1030.18183899 C-687.44797393 1028.46257849 -689.17217157 1026.74447341 -690.89741516 1025.02742004 C-693.63270251 1022.30498045 -696.36478018 1019.57935569 -699.09606934 1016.85290527 C-704.89457492 1011.06578767 -710.69696904 1005.28257927 -716.5 999.5 C-723.22830696 992.79540569 -729.95490873 986.08912059 -736.67732239 979.37861633 C-739.36010066 976.70228838 -742.04588891 974.02900673 -744.73181152 971.35583496 C-746.38711187 969.70416947 -748.04227067 968.05236211 -749.69726562 966.40039062 C-750.43721268 965.66560989 -751.17715973 964.93082916 -751.93952942 964.17378235 C-755.86957749 960.24413127 -759.59264643 956.21099226 -763.22214508 952.00370026 C-766.43100202 948.38721423 -769.87316603 945.00523243 -773.30273438 941.59960938 C-774.50172112 940.40281303 -774.50172112 940.40281303 -775.72492981 939.18183899 C-777.44797393 937.46257849 -779.17217157 935.74447341 -780.89741516 934.02742004 C-783.63270251 931.30498045 -786.36478018 928.57935569 -789.09606934 925.85290527 C-794.89457492 920.06578767 -800.69696904 914.28257927 -806.5 908.5 C-813.22830696 901.79540569 -819.95490873 895.08912059 -826.67732239 888.37861633 C-829.36010066 885.70228838 -832.04588891 883.02900673 -834.73181152 880.35583496 C-836.38711187 878.70416947 -838.04227067 877.05236211 -839.69726562 875.40039062 C-840.43721268 874.66560989 -841.17715973 873.93082916 -841.93952942 873.17378235 C-845.86957749 869.24413127 -849.59264643 865.21099226 -853.22214508 861.00370026 C-856.43100202 857.38721423 -859.87316603 854.00523243 -863.30273438 850.59960938 C-864.10205887 849.80174515 -864.90138336 849.00388092 -865.72492981 848.18183899 C-867.44797393 846.46257849 -869.17217157 844.74447341 -870.89741516 843.02742004 C-873.63270251 840.30498045 -876.36478018 837.57935569 -879.09606934 834.85290527 C-884.89457492 829.06578767 -890.69696904 823.28257927 -896.5 817.5 C-903.22830696 810.79540569 -909.95490873 804.08912059 -916.67732239 797.37861633 C-919.36010066 794.70228838 -922.04588891 792.02900673 -924.73181152 789.35583496 C-926.38711187 787.70416947 -928.04227067 786.05236211 -929.69726562 784.40039062 C-930.43721268 783.66560989 -931.17715973 782.93082916 -931.93952942 782.17378235 C-935.9658549 778.14786358 -939.81431954 774.02693027 -943.52167606 769.70472717 C-945.46234166 767.46685137 -947.51935725 765.36764536 -949.62109375 763.28125 C-950.41064453 762.49492188 -951.20019531 761.70859375 -952.01367188 760.8984375 C-953.2134668 759.71121094 -953.2134668 759.71121094 -954.4375 758.5 C-955.26443359 757.67757812 -956.09136719 756.85515625 -956.94335938 756.0078125 C-958.95994959 754.00287887 -960.97885236 752.00033747 -963 750 C-961.55162256 746.19037888 -959.93981121 743.36976576 -957.375 740.1875 C-956.74335937 739.39730469 -956.11171875 738.60710938 -955.4609375 737.79296875 C-954.97882813 737.20128906 -954.49671875 736.60960937 -954 736 C-950.00908186 737.23662765 -946.46616637 738.68775906 -942.82421875 740.73046875 C-941.84412842 741.27848145 -940.86403809 741.82649414 -939.85424805 742.39111328 C-938.80922119 742.9839209 -937.76419434 743.57672852 -936.6875 744.1875 C-935.59026611 744.80608887 -934.49303223 745.42467773 -933.36254883 746.06201172 C-922.42560713 752.2629123 -911.65109583 758.72776078 -900.90136719 765.24658203 C-898.19356008 766.88302352 -895.47815519 768.50559837 -892.7578125 770.12109375 C-852.89017061 793.80762228 -811.98108662 819.20803169 -778 851 C-777.48646973 851.47421387 -776.97293945 851.94842773 -776.44384766 852.43701172 C-768.98808707 859.369872 -763.0035387 866.33335078 -757.8046875 875.1015625 C-754.85457418 879.83962329 -752.47426179 881.42909458 -747.2265625 883.390625 C-746.02926514 883.8446167 -744.83196777 884.2986084 -743.59838867 884.76635742 C-742.95404877 885.00679779 -742.30970886 885.24723816 -741.64584351 885.4949646 C-738.11996252 886.81231795 -734.60539631 888.15928382 -731.08984375 889.50390625 C-729.97543663 889.92927422 -729.97543663 889.92927422 -728.83851624 890.36323547 C-720.57631105 893.52666772 -712.38025075 896.84914795 -704.1875 900.1875 C-702.6418548 900.81659136 -701.09620041 901.44566013 -699.55053711 902.07470703 C-697.17073514 903.04353297 -694.7910521 904.01264773 -692.41163635 904.98242188 C-683.7393947 908.51643832 -675.05767973 912.02696543 -666.37597656 915.53765869 C-659.38868254 918.36363588 -652.40266357 921.19276537 -645.41650391 924.02154541 C-643.84718746 924.65696953 -642.27785259 925.29234814 -640.70849609 925.92767334 C-622.3063407 933.37773896 -603.93487907 940.89609957 -585.59863281 948.50732422 C-581.9287761 950.02954294 -578.25764431 951.54865751 -574.5859375 953.06640625 C-573.97324509 953.319702 -573.36055267 953.57299774 -572.72929382 953.83396912 C-570.88203203 954.59765289 -569.03476602 955.36132646 -567.1875 956.125 C-560.36118166 958.94715271 -553.53618075 961.77207301 -546.72265625 964.625 C-532.539064 970.56322482 -518.29302543 976.33019017 -504 982 C-505.20605968 978.81163521 -506.41491185 975.624338 -507.625 972.4375 C-507.98529297 971.48834717 -508.34558594 970.53919434 -508.71679688 969.5612793 C-511.37546024 962.58111156 -514.12980473 955.64688478 -516.96875 948.73828125 C-518 946 -518 946 -518 944 C-516.53125 942.76318359 -516.53125 942.76318359 -514.5 941.3984375 C-513.4171875 940.66367188 -513.4171875 940.66367188 -512.3125 939.9140625 C-511.549375 939.40617187 -510.78625 938.89828125 -510 938.375 C-508.8553125 937.6015625 -508.8553125 937.6015625 -507.6875 936.8125 C-505.79568048 935.53552182 -503.89980102 934.26506032 -502 933 C-498.20297785 934.77573432 -495.66798056 937.03207883 -492.625 939.9375 C-486.61213881 945.57508247 -480.2661745 950.65960506 -473.72607422 955.66796875 C-472.06523689 956.94965594 -470.42310138 958.25174059 -468.78515625 959.5625 C-447.93271191 976.14710753 -424.85353592 985.85172266 -400 995 C-398.91976562 995.39896484 -397.83953125 995.79792969 -396.7265625 996.20898438 C-373.47982224 1004.72246976 -350.01193516 1011.06632739 -325.49902344 1014.62548828 C-323.40207992 1014.93974301 -321.31296276 1015.30562269 -319.2265625 1015.68359375 C-310.56697093 1017.14704454 -301.95477583 1017.20459051 -293.1875 1017.25 C-291.96595215 1017.2593457 -290.7444043 1017.26869141 -289.48583984 1017.27832031 C-269.35342763 1017.20910932 -250.10746332 1013.20372605 -230.47192383 1009.20825195 C-222.49189024 1007.58578991 -214.50419949 1006.00166668 -206.515625 1004.421875 C-205.73513794 1004.26746948 -204.95465088 1004.11306396 -204.1505127 1003.95397949 C-187.2920461 1000.62418368 -170.41493247 997.65477164 -153.38726807 995.32757568 C-150.77741466 994.96945733 -148.16874981 994.60330132 -145.56005859 994.23681641 C-97.50145451 987.52431852 -51.01083759 985.80345635 -2 985 C-89.45 897.55 -176.9 810.1 -267 720 C-271.09071085 723.50632358 -274.94317358 726.81825785 -278.71409607 730.59384155 C-279.58196243 731.46033325 -280.4498288 732.32682495 -281.34399414 733.21957397 C-282.73690674 734.61787949 -282.73690674 734.61787949 -284.15795898 736.04443359 C-285.16368978 737.05044696 -286.16964181 738.0562392 -287.17579651 739.06182861 C-289.88828222 741.77402907 -292.59768773 744.48928733 -295.30652499 747.20513105 C-298.14477271 750.04965758 -300.98587908 752.89132605 -303.82667542 755.73330688 C-309.19751364 761.10724512 -314.56579905 766.48372591 -319.93315798 771.86113894 C-326.04730011 777.98648362 -332.16430404 784.108967 -338.28154266 790.23121905 C-350.85753481 802.81764547 -363.42995255 815.40763676 -376 828 C-373.6229847 837.35624546 -370.58610675 846.46743318 -367.50292969 855.60717773 C-366.94885296 857.25736267 -366.39507924 858.90764936 -365.84158325 860.55802917 C-364.65639815 864.09044912 -363.46947357 867.62227791 -362.28127289 871.15368462 C-360.40320216 876.73673652 -358.53144238 882.32189131 -356.66094971 887.90748596 C-351.34388054 903.78275123 -346.02270204 919.6566213 -340.68554688 935.52514648 C-337.73251232 944.30533285 -334.78692174 953.08797857 -331.84974599 961.87348324 C-330.29671365 966.51772388 -328.73975602 971.16056775 -327.17354584 975.80038261 C-325.70359143 980.15508422 -324.24331247 984.51290698 -322.79049301 988.87335396 C-322.25517004 990.47419246 -321.71622483 992.07382481 -321.17344284 993.67214966 C-320.43442945 995.85001952 -319.70841233 998.03180374 -318.98553467 1000.21507263 C-318.57554607 1001.43598823 -318.16555748 1002.65690382 -317.74314499 1003.91481686 C-317.03397275 1006.85896136 -316.90362198 1008.23147009 -318 1011 C-318.80497925 1010.38294189 -318.80497925 1010.38294189 -319.6262207 1009.75341797 C-329.19453777 1002.42505622 -338.77621194 995.12132696 -348.5 988 C-355.2250029 983.07438786 -361.88039045 978.06633728 -368.5 973 C-378.24542339 965.5446706 -388.10033874 958.24870594 -398 951 C-408.80253607 943.09019325 -419.53121949 935.09892917 -430.16357422 926.96142578 C-436.6570757 922.00003157 -443.21640099 917.13662689 -449.80957031 912.30883789 C-456.90363623 907.10122289 -463.90284928 901.77278613 -470.88476562 896.41601562 C-472.51638316 895.16591427 -474.15413744 893.92376904 -475.79882812 892.69091797 C-477.17194109 891.63610648 -478.51623989 890.54125932 -479.81054688 889.39111328 C-482.20318125 887.36351618 -483.93795811 886.08667478 -487.11499023 885.82739258 C-489.79285783 886.04932752 -492.36042098 886.49491442 -495 887 C-496.11842285 887.18208008 -497.2368457 887.36416016 -498.38916016 887.55175781 C-502.37075423 888.20639515 -506.34126903 888.91086568 -510.3125 889.625 C-511.78659861 889.88700804 -513.2607202 890.14888683 -514.73486328 890.41064453 C-522.93840213 891.87422221 -531.13067382 893.39312457 -539.31640625 894.953125 C-540.16078751 895.11392548 -541.00516876 895.27472595 -541.87513733 895.44039917 C-545.99008479 896.22531113 -550.10382253 897.01597595 -554.21606445 897.81494141 C-555.71434825 898.10322765 -557.21263891 898.39147819 -558.7109375 898.6796875 C-559.39172867 898.81377014 -560.07251984 898.94785278 -560.77394104 899.08599854 C-563.94867119 899.69381202 -566.74521648 900 -570 900 C-571.51996397 889.0596348 -572.410081 878.09220495 -573.18359375 867.078125 C-573.28668462 865.62633789 -573.38984479 864.1745557 -573.49307251 862.72277832 C-573.9199155 856.69630516 -574.34331685 850.66965427 -574.74731445 844.64160156 C-574.99773039 840.91236265 -575.26090111 837.18420924 -575.53233528 833.45644379 C-575.63238839 832.04862237 -575.72767468 830.64045326 -575.81796074 829.23197174 C-575.94397025 827.27264984 -576.08770166 825.31449214 -576.23217773 823.35644531 C-576.34637306 821.69128876 -576.34637306 821.69128876 -576.46287537 819.99249268 C-577.43466016 814.5783696 -580.08946507 811.60694827 -584.375 808.375 C-588.48592559 805.1975597 -592.4872753 801.93497075 -596.4375 798.5625 C-601.22580457 794.48931377 -606.05619561 790.47516276 -610.9296875 786.50390625 C-620.51151921 778.68971525 -630.05570308 770.83306826 -639.47705078 762.82592773 C-643.58856592 759.33583103 -647.74901309 755.91060741 -651.9296875 752.50390625 C-661.50493959 744.69508107 -671.04653913 736.84791247 -680.45727539 728.84130859 C-683.87654063 725.93641743 -687.33202272 723.08117013 -690.8125 720.25 C-695.29904235 716.59892814 -699.68165963 712.84814858 -704 709 C-703.39644592 705.14974121 -702.23227397 702.13898841 -700.4375 698.6875 C-699.98246094 697.80449219 -699.52742188 696.92148437 -699.05859375 696.01171875 C-698.70925781 695.34785156 -698.35992188 694.68398438 -698 694 C-691.54560291 694.73137644 -685.39803515 696.34466034 -679.125 698 C-677.95606201 698.30542725 -676.78712402 698.61085449 -675.58276367 698.92553711 C-665.43254827 701.59117622 -655.31192429 704.36332062 -645.1930542 707.14517212 C-635.27484692 709.87012274 -625.33073496 712.45281202 -615.34008789 714.90039062 C-608.0554698 716.69884529 -600.85188985 718.72021012 -593.64941406 720.82104492 C-586.98874715 722.75182883 -580.28976377 724.45803524 -573.55151367 726.09472656 C-566.265589 727.88387161 -559.06947286 729.949544 -551.88867188 732.12109375 C-546.0365619 734.01508232 -546.0365619 734.01508232 -540 734 C-537.95212897 732.52020346 -537.95212897 732.52020346 -536.1875 730.4375 C-533.68465424 727.69984568 -531.11232163 725.19833124 -528.30078125 722.78515625 C-523.63381611 718.74846694 -519.32411057 714.39790085 -515 710 C-506.57808043 701.43436166 -506.57808043 701.43436166 -502.03125 697.53125 C-497.26833486 693.43797243 -492.90285874 688.97353063 -488.5 684.5 C-483.49079531 679.41039074 -478.45977219 674.46995399 -473.04101562 669.81835938 C-469.01503106 666.23157312 -465.28078502 662.34147178 -461.5 658.5 C-456.49079531 653.41039074 -451.45977219 648.46995399 -446.04101562 643.81835938 C-442.01503106 640.23157312 -438.28078502 636.34147178 -434.5 632.5 C-429.49616902 627.41585071 -424.47127438 622.47850755 -419.05859375 617.83154297 C-414.94765655 614.17401796 -411.119635 610.22162107 -407.25 606.3125 C-405.99509766 605.05083008 -405.99509766 605.05083008 -404.71484375 603.76367188 C-403.16581876 602.20600002 -401.61783197 600.64729444 -400.07128906 599.0871582 C-398.05262718 597.05303039 -396.0264096 595.0264096 -394 593 C-462.97 524.03 -531.94 455.06 -603 384 C-601.39592098 380.79184196 -600.58286066 379.33641682 -598.1796875 376.984375 C-597.64472656 376.45585938 -597.10976563 375.92734375 -596.55859375 375.3828125 C-596.00300781 374.84398437 -595.44742187 374.30515625 -594.875 373.75 C-594.31167969 373.19570313 -593.74835938 372.64140625 -593.16796875 372.0703125 C-591.78313972 370.70895515 -590.39216796 369.35385141 -589 368 C-583.53667364 372.55609323 -578.47062771 377.39011805 -573.45155334 382.42819214 C-572.61661124 383.26227982 -571.78166914 384.0963675 -570.92142576 384.95573056 C-568.62090885 387.25489168 -566.3226343 389.55626655 -564.02531374 391.85862064 C-561.54120684 394.34706517 -559.05419079 396.83259932 -556.5675354 399.3184967 C-552.26509322 403.62041574 -547.96447885 407.92415497 -543.66511726 412.22915268 C-537.44903752 418.45337589 -531.23018272 424.67482036 -525.01065748 430.89560045 C-514.91880213 440.98964185 -504.82917977 451.08591218 -494.7409668 461.18359375 C-484.94396469 470.98978154 -475.14590788 480.79491353 -465.34643555 490.59863281 C-464.74191451 491.20341657 -464.13739347 491.80820034 -463.51455361 492.43131088 C-460.48169882 495.46547076 -457.44882333 498.49960995 -454.41593754 501.53373885 C-429.27408233 526.68595276 -404.1358532 551.84178804 -379 577 C-376.23780324 575.66229277 -374.09720984 574.37369893 -371.85546875 572.26953125 C-371.26838135 571.72111572 -370.68129395 571.1727002 -370.07641602 570.60766602 C-369.45307373 570.01526123 -368.82973145 569.42285645 -368.1875 568.8125 C-367.53386475 568.19753662 -366.88022949 567.58257324 -366.20678711 566.94897461 C-360.78833449 561.8206459 -355.49756834 556.56798794 -350.27612305 551.23950195 C-347.32957369 548.2491531 -344.33809468 545.38785668 -341.15234375 542.65234375 C-336.35480331 538.51166796 -331.94307071 534.01438806 -327.5 529.5 C-322.4808079 524.40024302 -317.44380407 519.42695758 -312.01806641 514.76025391 C-308.20956947 511.43830097 -304.56611258 507.95359746 -300.9375 504.4375 C-299.7628418 503.34405273 -299.7628418 503.34405273 -298.56445312 502.22851562 C-294.32389924 498.37189993 -294.32389924 498.37189993 -292.8203125 493.14453125 C-293.20960938 492.10683594 -293.59890625 491.06914063 -294 490 C-294.43587845 488.3828962 -294.86036778 486.76270569 -295.27734375 485.140625 C-295.82679988 483.17598018 -296.3804913 481.2125169 -296.9375 479.25 C-297.24107422 478.17306885 -297.54464844 477.0961377 -297.85742188 475.98657227 C-301.54848501 462.96053162 -305.39440074 449.97954771 -309.23147583 436.99595642 C-310.98344291 431.06461106 -312.71316495 425.12693443 -314.4375 419.1875 C-317.65231344 408.12881356 -320.94077669 397.09226812 -324.22824097 386.05502319 C-327.0111173 376.71067645 -329.78210102 367.36350361 -332.5 358 C-335.28040114 348.44247815 -338.07676558 338.88967413 -340.89672852 329.34375 C-341.37357292 327.7273066 -341.84904913 326.1104588 -342.32299805 324.49316406 C-350.98998046 294.931844 -361.1616935 274.05393017 -388.91796875 258.6953125 C-394.05119695 255.89065542 -399.21289478 253.14191699 -404.38183594 250.40380859 C-407.62605883 248.66431944 -410.81820585 246.85081829 -414 245 C-412.90301833 239.30860098 -411.45946923 234.25432063 -409 229 C-396.96376209 228.4571414 -385.22374711 230.08992885 -373.3125 231.625 C-371.73020096 231.82558014 -371.73020096 231.82558014 -370.11593628 232.0302124 C-351.29482079 234.42378065 -332.60869419 237.2981222 -314 241 C-313.07799805 241.18272461 -312.15599609 241.36544922 -311.20605469 241.55371094 C-276.46350374 248.61789193 -276.46350374 248.61789193 -268.55859375 260.453125 C-265.44130703 265.65567956 -263.40083651 271.1984662 -261.3125 276.875 C-260.85174072 278.10911621 -260.39098145 279.34323242 -259.91625977 280.61474609 C-258.25842211 285.06955413 -256.62715552 289.5339076 -255 294 C-254.68099731 294.875354 -254.36199463 295.75070801 -254.0333252 296.65258789 C-242.12793964 329.3538659 -230.53901859 362.16800655 -219 395 C-196.64756633 367.42839435 -175.00320129 326.93798247 -178.54736328 290.66967773 C-178.79881208 288.34030535 -179.05679816 286.01163207 -179.3203125 283.68359375 C-179.4593248 282.41477859 -179.5983371 281.14596344 -179.74156189 279.83869934 C-180.11714414 276.41500329 -180.50048517 272.99221929 -180.88570023 269.56959534 C-181.2084428 266.69404751 -181.52675087 263.81801475 -181.84526157 260.94199562 C-184.16521082 240.00838761 -186.62144329 219.09225507 -189.16444397 198.18457031 C-191.11369832 182.1539622 -192.97101326 166.11324293 -194.80517578 150.0690918 C-195.04972307 147.93146853 -195.2943515 145.79385454 -195.5390625 143.65625 C-195.65911652 142.6074617 -195.77917053 141.5586734 -195.90286255 140.47810364 C-196.75099612 133.09683676 -197.63114232 125.71979425 -198.5234375 118.34375 C-198.88091287 115.36462933 -199.23779 112.38543764 -199.5944519 109.40621948 C-199.82088512 107.52918665 -200.05009675 105.65248664 -200.28225708 103.77615356 C-200.60004805 101.20702066 -200.90842175 98.63691601 -201.21484375 96.06640625 C-201.31030487 95.31689697 -201.40576599 94.5673877 -201.50411987 93.79516602 C-202.53447961 84.96343796 -202.53447961 84.96343796 -199.79554749 81.45884705 C-198.12917952 79.63104344 -196.39813625 77.89638082 -194.62890625 76.16796875 C-193.99137924 75.53135818 -193.35385223 74.89474762 -192.69700623 74.23884583 C-191.35082183 72.89869255 -189.99979077 71.56339252 -188.64428711 70.23266602 C-186.56303076 68.18802143 -184.49832465 66.1277221 -182.43554688 64.06445312 C-181.12594189 62.7646753 -179.81542591 61.46581457 -178.50390625 60.16796875 C-177.88302628 59.54931442 -177.2621463 58.9306601 -176.62245178 58.29325867 C-172.23214392 54 -172.23214392 54 -170 54 C-161.55775492 87.54163359 -153.20579037 121.10231768 -145.08789062 154.72399902 C-144.10203997 158.8070002 -143.11576396 162.88989835 -142.12890625 166.97265625 C-141.96481388 167.65155285 -141.80072151 168.33044945 -141.63165665 169.02991867 C-137.30847011 186.90819912 -132.90576794 204.76692406 -128.5 222.625 C-128.30934589 223.39786221 -128.11869179 224.17072441 -127.92226028 224.96700668 C-125.61692385 234.31185284 -123.30963203 243.65621453 -121 253 C-118.90831314 253.21539664 -118.90831314 253.21539664 -117.4152832 251.65820312 C-116.79999756 251.03880859 -116.18471191 250.41941406 -115.55078125 249.78125 C-114.86693359 249.09546875 -114.18308594 248.4096875 -113.47851562 247.703125 C-112.76373047 246.97609375 -112.04894531 246.2490625 -111.3125 245.5 C-110.61705078 244.80390625 -109.92160156 244.1078125 -109.20507812 243.390625 C-104.60632802 238.75322994 -100.24852056 233.95845782 -96 229 C-95.11077634 227.9790802 -94.22146102 226.95824023 -93.33203125 225.9375 C-72.41279433 201.54794006 -51.73854652 173.36453344 -42.140625 142.3515625 C-41.88611572 141.53673401 -41.63160645 140.72190552 -41.36938477 139.88238525 C-38.60256448 130.90042586 -36.194386 121.82518488 -33.79241943 112.74032593 C-25.24341196 80.47923084 -15.67895783 48.52860794 -5.6875 16.6875 C-5.33470978 15.5630397 -5.33470978 15.5630397 -4.97479248 14.41586304 C-4.32295345 12.3428415 -3.66817238 10.27078308 -3.01171875 8.19921875 C-2.64522217 7.04252686 -2.27872559 5.88583496 -1.90112305 4.6940918 C-1 2 -1 2 0 0 Z " fill="#060909" transform="translate(1233,260)"/>
<path d="M0 0 C4.44036805 2.9446446 8.87060943 5.90055487 13.25390625 8.9296875 C55.79387211 38.17009486 112.17093944 54.55512101 163 61 C163.75474609 61.1016748 164.50949219 61.20334961 165.28710938 61.30810547 C172.9495726 62.22115599 180.64800323 62.22139714 188.35400391 62.24023438 C190.70382903 62.24981182 193.05272753 62.28086199 195.40234375 62.3125 C215.02295235 62.45436593 233.99567799 58.80306595 253.14385986 54.84234619 C258.60693539 53.71332111 264.07511425 52.60951331 269.54296875 51.50390625 C270.61925537 51.28583313 271.69554199 51.06776001 272.80444336 50.84307861 C285.7106101 48.2362743 298.65368501 45.8616722 311.62353516 43.59521484 C314.68347859 43.05579748 317.7383774 42.49455989 320.79296875 41.92578125 C352.37052207 36.18795291 385.46634493 32.28019066 417.5625 31.375 C418.79242676 31.33922852 420.02235352 31.30345703 421.28955078 31.26660156 C425.5259717 31.1533472 429.76271269 31.07284606 434 31 C435.21384369 30.97842834 435.21384369 30.97842834 436.45220947 30.9564209 C474.02541264 30.31795611 511.05771939 31.70166146 548 39 C549.29139893 39.24919189 549.29139893 39.24919189 550.60888672 39.50341797 C607.05698972 50.5590568 658.5907156 74.57483974 699 116 C693.50975786 118.95484049 687.45197958 120.42715074 681.5 122.1875 C680.80000885 122.39543182 680.1000177 122.60336365 679.3788147 122.81759644 C662.77672253 127.716887 645.98171918 131.88352027 629.1875 136.0625 C628.50904022 136.23140621 627.83058044 136.40031242 627.13156128 136.57433701 C622.56144474 137.71150811 617.99011434 138.84367016 613.41796875 139.97265625 C612.23909592 140.26389374 611.06022308 140.55513123 609.84562683 140.85519409 C608.20730644 141.2576384 608.20730644 141.2576384 606.53588867 141.66821289 C605.58364914 141.90230362 604.63140961 142.13639435 603.65031433 142.37757874 C601.10892126 142.97442005 598.56282069 143.50413827 596 144 C598.63221629 147.0679175 601.72151627 148.56039489 605.30078125 150.37109375 C605.92455154 150.68922028 606.54832184 151.0073468 607.19099426 151.33511353 C608.53100292 152.01812287 609.87227004 152.69866776 611.21466064 153.37698364 C614.76816089 155.17337722 618.31178704 156.989021 621.85546875 158.8046875 C622.56203613 159.16633499 623.26860352 159.52798248 623.99658203 159.90058899 C629.75996945 162.8583134 635.4563874 165.9268676 641.125 169.0625 C649.50810725 173.69145723 657.98334785 178.12372773 666.5 182.5 C675.93285247 187.34716231 685.29417123 192.29970732 694.58032227 197.42382812 C703.69554555 202.42991583 712.9394958 207.18252144 722.19335938 211.92578125 C727.86711889 214.83908053 733.50398931 217.7622912 739 221 C737.90315739 224.29052784 737.4749726 224.6502666 734.73828125 226.49609375 C734.04323486 226.96611816 733.34818848 227.43614258 732.63208008 227.92041016 C731.48388794 228.67136963 731.48388794 228.67136963 730.3125 229.4375 C729.51158936 229.9639209 728.71067871 230.4903418 727.88549805 231.03271484 C673.79156623 266.00074492 608.68844721 281.52737145 544.6875 281.375 C543.24892136 281.37318726 543.24892136 281.37318726 541.78128052 281.37133789 C467.23713621 281.12047369 387.81900547 263.44996138 321 230 C319.82638916 229.4136377 318.65277832 228.82727539 317.44360352 228.22314453 C314.70770596 226.85590746 311.97239184 225.48750977 309.23730469 224.11865234 C305.84751332 222.42278632 302.45530454 220.73184346 299.06170654 219.04360962 C296.42876945 217.73363079 293.79676043 216.42179287 291.16479492 215.10986328 C289.85233055 214.45614291 288.53950779 213.80314155 287.22631836 213.15087891 C279.34863942 209.23702772 271.52127387 205.24297022 263.74609375 201.12890625 C254.68860655 196.33820967 245.57098634 191.67598028 236.41064453 187.08520508 C233.86590619 185.80793558 231.32558276 184.52214776 228.78515625 183.23632812 C220.87440438 179.25482395 212.93720256 175.41371623 204.7578125 172.01171875 C204.09063202 171.73229935 203.42345154 171.45287994 202.73605347 171.16499329 C184.71033384 163.86630978 167.766596 167.58234265 149.34375 171.375 C147.10244149 171.8247458 144.86085884 172.27312735 142.61901855 172.72021484 C136.77041765 173.8903471 130.92568238 175.07875524 125.081604 176.27124023 C119.0970266 177.48894024 113.10891529 178.68899875 107.12109375 179.890625 C95.41057301 182.2433366 83.70406693 184.61540515 72 187 C64.84716797 168.55322266 57.69433594 150.10644531 50.54150391 131.65966797 C49.95243759 130.14049774 49.95243759 130.14049774 49.35147095 128.59063721 C48.56824603 126.57074031 47.78502256 124.55084285 47.00180054 122.53094482 C45.0481093 117.49245917 43.09439236 112.45398348 41.140625 107.41552734 C37.52979679 98.10369984 33.91916049 88.79179813 30.30944824 79.47953796 C29.07860454 76.30428295 27.84766059 73.12906682 26.61669922 69.95385742 C25.0151179 65.82264312 23.41393215 61.69127582 21.81298828 57.55981445 C18.12964664 48.05645643 14.43949531 38.55586585 10.73046875 29.0625 C10.06938982 27.36890722 9.40833761 25.67530401 8.74731445 23.98168945 C7.53368537 20.87239665 6.31697003 17.76433715 5.09838867 14.65698242 C4.56286991 13.28569075 4.02746232 11.91435566 3.4921875 10.54296875 C3.03183105 9.36758545 2.57147461 8.19220215 2.09716797 6.98120117 C1.2389625 4.64930375 0.52425222 2.42308633 0 0 Z " fill="#FEFEFE" transform="translate(750,1236)"/>
<path d="M0 0 C6.8906676 3.95513116 11.5626859 9.71133428 14.625 17 C15.37895275 22.91615178 15.85494963 29.63929024 13 35.0625 C9.72622722 39.11164002 6.67957097 42.31514301 1.625 44 C-7.16046383 44.7904659 -14.37069086 44.75105303 -21.375 39 C-28.35639789 32.59241563 -31.41277641 26.43410194 -31.875 17 C-31.66638684 10.10707338 -29.61833022 6.12858977 -24.71875 1.40234375 C-17.54306587 -4.05543295 -7.96104795 -3.56790869 0 0 Z " fill="#080A0A" transform="translate(1358.375,1437)"/>
</g>
</svg>
