<?xml version="1.0" encoding="UTF-8"?>
<svg version="1.1" xmlns="http://www.w3.org/2000/svg" width="2120" height="2120">
<g transform="translate(0 120) 
              rotate(-45) 
              scale(0.07)">
<path d="M0 0 C699.6 0 1399.2 0 2120 0 C2120 699.6 2120 1399.2 2120 2120 C1420.4 2120 720.8 2120 0 2120 C0 1420.4 0 720.8 0 0 Z " fill="#FEFEFE" transform="translate(0,0)"/>
<path d="M0 0 C699.6 0 1399.2 0 2120 0 C2120 699.6 2120 1399.2 2120 2120 C1420.4 2120 720.8 2120 0 2120 C0 1420.4 0 720.8 0 0 Z M168 168 C168 756.72 168 1345.44 168 1952 C756.72 1952 1345.44 1952 1952 1952 C1952 1363.28 1952 774.56 1952 168 C1363.28 168 774.56 168 168 168 Z " fill="#FF1A25" transform="translate(0,0)"/>
<path d="M0 0 C3.34315476 1.45696261 5.55487459 3.29622897 8.13662529 5.85700989 C8.95745405 6.66645617 9.77828281 7.47590244 10.62398517 8.3098774 C11.520289 9.20382147 12.41659282 10.09776554 13.34005737 11.01879883 C14.30560852 11.97488562 15.27157658 12.93055153 16.23792565 13.88583183 C18.89388387 16.51399701 21.54352214 19.14845458 24.19209719 21.78405738 C26.46408813 24.04329933 28.73975144 26.2988238 31.01547055 28.55430943 C38.51093629 35.98316665 45.99464509 43.42380824 53.47521847 50.86765766 C55.42242236 52.80527065 57.36981347 54.74269529 59.31724787 56.6800766 C71.40778859 68.70869095 83.49405814 80.74158608 95.57043266 92.78442383 C98.36688341 95.57297552 101.16338755 98.36147365 103.95996094 101.14990234 C104.65503679 101.84296148 105.35011265 102.53602061 106.06625141 103.25008154 C117.33547631 114.48526702 128.62858764 125.69612722 139.93150769 136.89740312 C151.53208223 148.39450935 163.1099639 159.91408242 174.66617978 171.45577717 C181.15672032 177.93698427 187.65703209 184.40770054 194.18307114 190.85317993 C199.73875203 196.340362 205.27376967 201.8473579 210.7826169 207.38157398 C213.59478484 210.20541936 216.41584904 213.01857087 219.26377296 215.80639076 C221.87052332 218.35856995 224.44809029 220.93685174 227.0051495 223.5387882 C228.37624614 224.91941669 229.77697282 226.27042282 231.17847526 227.62017536 C236.95556934 233.57754557 236.95556934 233.57754557 237.08563828 237.74172306 C236.58674072 240.27979509 235.87904643 242.57222595 235 245 C232.39965855 271.10611703 241.19642954 293.48341957 257.5 313.6875 C258.99148361 315.46551219 260.49120928 317.23665056 262 319 C262.68191406 319.80566406 263.36382813 320.61132812 264.06640625 321.44140625 C268.37853783 326.42862692 272.94329128 330.78166358 278 335 C278.87269531 335.76054688 279.74539063 336.52109375 280.64453125 337.3046875 C292.97957949 347.90589362 306.20187254 356.26047828 321 363 C321.61311035 363.28359375 322.2262207 363.5671875 322.85791016 363.859375 C333.60433383 368.75487179 347.56029445 374.30238083 359.56602859 372.47129059 C367.44452573 371.34581215 373.63182162 371.52702503 380.20937347 376.39653015 C385.57481922 380.93480061 390.46999906 385.94025046 395.32896924 391.00765681 C397.89191284 393.65773935 400.51323616 396.2490129 403.12757874 398.84822083 C407.63878466 403.34898663 412.11219319 407.88463309 416.5613327 412.44673157 C422.99366891 419.04226951 429.48116137 425.58125444 435.98302129 432.10817999 C446.53232183 442.7011517 457.03627349 453.33792073 467.51220703 464.00341797 C477.6829397 474.35799748 487.87466633 484.69116019 498.09521484 494.99658203 C498.72619043 495.63281209 499.35716602 496.26904215 500.00726208 496.9245519 C503.17311032 500.11650268 506.33937445 503.30804055 509.50584555 506.49937344 C535.73534768 532.93589329 561.89148632 559.44401289 588 586 C586.3587623 589.47316022 584.50595095 591.74107996 581.77328491 594.46722412 C580.88704941 595.35620895 580.0008139 596.24519379 579.08772278 597.16111755 C578.10333337 598.13842926 577.11884835 599.11564467 576.13427734 600.09277344 C575.09908313 601.12740339 574.06432935 602.16247417 573.02998352 603.19795227 C570.22266888 606.00584082 567.40922972 608.80751943 564.59465742 611.60813046 C561.65357681 614.53671011 558.7181575 617.47095302 555.78213501 620.40460205 C550.22235189 625.95816854 544.6574901 631.50661702 539.09078944 637.05324864 C532.75318508 643.36849971 526.42125757 649.68942951 520.0898025 656.01084471 C507.06617865 669.01356242 494.03543639 682.00912512 481 695 C475.02176591 690.04402341 469.54585572 684.68466123 464.06497288 679.18802071 C463.06617309 678.1899615 462.06715387 677.19212186 461.06793645 676.19448078 C458.32453022 673.45413486 455.58424305 670.71068851 452.8444573 667.9667235 C449.86264147 664.9814667 446.87791665 661.99912073 443.89356035 659.01640403 C438.66421244 653.7891284 433.43672343 648.55999955 428.21044731 643.32965279 C420.43916144 635.55233084 412.66500914 627.77787891 404.89026591 620.00401337 C391.8118697 606.92693103 378.7358023 593.84752241 365.66105843 580.76678848 C352.71455924 567.8143732 339.76702737 554.86299166 326.81811333 541.91299057 C326.01312703 541.10793553 325.20814072 540.30288049 324.3787609 539.47342984 C320.2906722 535.38500281 316.20256503 531.29659425 312.11445075 527.20819281 C283.15494782 498.24658922 254.19776429 469.28266762 225.24194336 440.31738281 C197.11095581 412.17721158 168.9789186 384.03809039 140.84545898 355.90039062 C139.97833318 355.0331333 139.11120738 354.16587597 138.21780504 353.27233812 C129.50980647 344.56302103 120.80178655 335.8537253 112.09375099 327.14444521 C94.35432334 309.40248131 76.6150382 291.66037492 58.87583923 273.91818237 C57.65239718 272.69453439 57.65239718 272.69453439 56.40423913 271.44616624 C1.93377197 216.9664977 -52.53337286 162.4835076 -107 108 C-106.04906579 106.8834377 -105.09710967 105.76774566 -104.14472759 104.65241808 C-103.61471765 104.03102318 -103.0847077 103.40962829 -102.53863686 102.76940325 C-100.59188833 100.53067931 -98.54302539 98.42015379 -96.44412231 96.3238678 C-95.58604477 95.46441559 -94.72796722 94.60496338 -93.84388733 93.71946716 C-92.92103439 92.8002095 -91.99818146 91.88095184 -91.04736328 90.93383789 C-90.051202 89.93795919 -89.05526186 88.94185924 -88.05952454 87.94555664 C-85.37418267 85.25992954 -82.68578337 82.57738251 -79.99679804 79.8954041 C-77.18029848 77.08518386 -74.36665747 74.27210448 -71.55270386 71.45933533 C-66.23188962 66.14162096 -60.90853291 60.82645942 -55.58424366 55.51222461 C-49.5193571 49.45854106 -43.45733223 43.40199531 -37.39553857 37.34521496 C-24.93352642 24.89363674 -12.46794942 12.445633 0 0 Z " fill="#060808" transform="translate(347,386)"/>
<path d="M0 0 C0.99515625 0.83144531 1.9903125 1.66289063 3.015625 2.51953125 C15.33359128 13.15051032 24.25700332 26.57227958 33.49267578 39.83984375 C35.93678455 43.34251211 38.4076875 46.82616007 40.875 50.3125 C47.01906895 59.0111392 53.12384977 67.73716506 59.2265625 76.46484375 C60.96233633 78.9461592 62.69962514 81.42640574 64.4375 83.90625 C75.65885596 99.92010995 86.86441085 115.94540238 97.91870117 132.07519531 C101.57879253 137.40716339 105.28622631 142.70532264 109 148 C113.59405346 154.54968042 118.15850025 161.11770997 122.68017578 167.7175293 C126.7163644 173.60260447 130.79480946 179.45787415 134.875 185.3125 C140.31083737 193.11432289 145.70844422 200.94035203 151.06591797 208.79614258 C155.34085413 215.05629241 159.66501743 221.28131533 164 227.5 C169.39643894 235.24138109 174.75421544 243.00707534 180.07080078 250.8034668 C184.3016228 256.99929364 188.58310513 263.15886186 192.875 269.3125 C198.75722155 277.74780816 204.5750199 286.22411127 210.35498047 294.72973633 C214.86001843 301.35038355 219.41791979 307.93248099 224 314.5 C229.27041294 322.05564353 234.50316942 329.63501185 239.6875 337.25 C240.30173828 338.15194092 240.91597656 339.05388184 241.54882812 339.9831543 C243.96983418 343.54037374 246.38915975 347.09870877 248.80322266 350.66064453 C250.53306654 353.21291213 252.26637567 355.7627994 254 358.3125 C254.50362061 359.05854492 255.00724121 359.80458984 255.52612305 360.57324219 C264.1254403 373.20513641 272.62982656 384.58997595 288.17675781 388.55517578 C291.7257875 389.11435358 295.20447331 389.10462598 298.78515625 389.0625 C299.52326035 389.05871338 300.26136444 389.05492676 301.02183533 389.05102539 C303.3687844 389.0388619 305.71560748 389.02023391 308.0625 389 C311.15754891 388.97337592 314.25253573 388.95339919 317.34765625 388.9375 C318.05503433 388.92920166 318.76241241 388.92090332 319.4912262 388.91235352 C322.81201737 388.89584006 325.82573923 388.9651696 329 390 C329 390.66 329 391.32 329 392 C327.55737305 393.29003906 327.55737305 393.29003906 325.51171875 394.765625 C324.37307373 395.59489502 324.37307373 395.59489502 323.21142578 396.44091797 C322.37853027 397.03791504 321.54563477 397.63491211 320.6875 398.25 C318.9283093 399.52854111 317.1691968 400.80718982 315.41015625 402.0859375 C314.50668457 402.73916992 313.60321289 403.39240234 312.67236328 404.06542969 C308.64243048 406.98276821 304.63165454 409.92580412 300.625 412.875 C299.84793701 413.44637695 299.07087402 414.01775391 298.27026367 414.60644531 C292.29959154 419.00980838 286.39235377 423.49255494 280.5 428 C269.98837925 436.04102314 259.34369567 443.89059941 248.66601562 451.70898438 C238.65158574 459.04620661 228.71372811 466.47043152 218.8605957 474.02319336 C213.71068056 477.96271352 208.51805572 481.83253735 203.27416992 485.64599609 C186.23196247 498.04862609 175.13781414 508.77257903 169.125 529.375 C163.01092736 549.20644503 150.56336757 565.09300876 132.3125 575.3125 C120.3125197 581.5322081 110.41375597 583.07378313 97 581 C86.94812927 595.66185779 78.25595561 610.61298046 70.0625 626.375 C56.18146335 653.05950981 42.55117636 676.64883512 12.6171875 687.19140625 C8.35966731 688.14314133 4.41010685 688.36766227 0.0625 688.375 C-0.69740234 688.39949219 -1.45730469 688.42398438 -2.24023438 688.44921875 C-10.92333499 688.49370944 -16.96702017 684.60865639 -23.23828125 678.8671875 C-29.50325663 672.22714708 -30.37175553 665.24679507 -30.2734375 656.4375 C-29.12808874 642.03882988 -18.69504895 626.77416475 -8.16967773 617.36352539 C-2.4413766 612.65600582 3.740261 609.27919736 10.35742188 605.97674561 C12.90075003 604.70618423 15.43171046 603.411781 17.96377563 602.11895752 C19.29349078 601.44019147 20.62371666 600.76242507 21.95443726 600.08563232 C38.33686652 591.75069042 54.67298812 583.25506337 70.375 573.6875 C71.7043457 572.88771729 71.7043457 572.88771729 73.06054688 572.07177734 C73.85267578 571.57758301 74.64480469 571.08338867 75.4609375 570.57421875 C76.14978027 570.14713623 76.83862305 569.72005371 77.54833984 569.2800293 C78.0273877 568.85761963 78.50643555 568.43520996 79 568 C79.16382643 564.97763955 79.16382643 564.97763955 78.02734375 562.1953125 C75.21272509 553.44109933 76.61469529 545.0629861 80.46875 536.89453125 C85.96486622 526.50518912 92.80403883 518.31588877 101 510 C101.80308594 509.16082031 102.60617187 508.32164062 103.43359375 507.45703125 C113.21488457 497.87367549 125.60413234 492.92268624 138.67993164 489.54589844 C140.4670296 489.08048855 142.23596691 488.54636319 144 488 C146.44294437 483.11411126 144.91094029 478.13947347 143.375 473.1875 C139.09333702 461.25475541 131.15637995 451.51482626 123.73779297 441.37890625 C120.97559721 437.59767058 118.23857409 433.79835906 115.5 430 C112.24161506 425.48586098 108.98133295 420.97312273 105.71484375 416.46484375 C99.93074391 408.47727731 94.19197239 400.46137871 88.51928711 392.39428711 C84.88539314 387.23409805 81.20321926 382.11061851 77.5 377 C72.78959343 370.49941517 68.13702392 363.9613612 63.51953125 357.39453125 C59.88545434 352.2343328 56.20328599 347.1107106 52.5 342 C48.29314076 336.1943344 44.12404728 330.36478281 40 324.5 C33.74567124 315.60923428 27.3788447 306.80166999 21 298 C14.11735541 288.50317587 7.2657806 278.9884349 0.51928711 269.39428711 C-3.11460686 264.23409805 -6.79678074 259.11061851 -10.5 254 C-14.7068583 248.1943357 -18.87603835 242.3648422 -23 236.5 C-27.71037086 229.80217362 -32.48316721 223.15192553 -37.28515625 216.51953125 C-40.94255436 211.46758566 -44.57747735 206.40043078 -48.19628906 201.32080078 C-51.56744302 196.59388603 -54.97015949 191.8901856 -58.375 187.1875 C-63.12384308 180.6258667 -67.81612596 174.02716968 -72.47558594 167.40185547 C-76.69819426 161.40664003 -80.98477423 155.45911771 -85.28515625 149.51953125 C-88.94074965 144.4700785 -92.57648214 139.40724828 -96.18969727 134.32739258 C-98.50389114 131.07857561 -100.83812717 127.84564449 -103.19140625 124.625 C-123.64385153 96.60782933 -137.80599855 70.67858096 -133.73193359 34.62792969 C-130.6322408 16.29283031 -120.12435441 0.81081927 -105.625 -10.375 C-95.84005445 -17.06045286 -85.62712372 -20.93193452 -74 -23 C-73.27941406 -23.14308594 -72.55882812 -23.28617188 -71.81640625 -23.43359375 C-45.53902004 -27.58265473 -19.7998865 -16.54548527 0 0 Z " fill="#070909" transform="translate(1546,699)"/>
<path d="M0 0 C2 2 2 2 2.24482727 3.86140442 C2.24306992 4.6171727 2.24131256 5.37294098 2.23950195 6.15161133 C2.24323318 7.01043411 2.24696442 7.8692569 2.25080872 8.75410461 C2.24667465 9.6873204 2.24254059 10.62053619 2.23828125 11.58203125 C2.25372241 13.56706396 2.27002756 15.5520901 2.28710938 17.53710938 C2.30344798 20.65924606 2.31257239 23.78090098 2.30541992 26.90307617 C2.29225116 41.88793368 2.70069124 54.90838287 12.89453125 66.90625 C17.17707148 71.1649542 22.03975249 74.58357592 27 78 C28.00571045 78.69536865 28.00571045 78.69536865 29.03173828 79.40478516 C32.92854225 82.0928134 36.83830398 84.76132229 40.75390625 87.421875 C46.27896857 91.18104521 51.7669944 94.99233505 57.25 98.8125 C58.20825684 99.47991211 59.16651367 100.14732422 60.15380859 100.83496094 C62.11263027 102.1996361 64.07128805 103.56454657 66.02978516 104.9296875 C70.99773781 108.39247219 75.9671969 111.85309 80.9375 115.3125 C81.90179932 115.98369873 82.86609863 116.65489746 83.85961914 117.34643555 C89.29023085 121.12366448 94.73119263 124.88500241 100.1875 128.625 C106.85291377 133.19454373 113.47632141 137.82252354 120.09326172 142.46191406 C126.49040113 146.94633181 132.89828642 151.41504072 139.3125 155.875 C140.2701123 156.54088135 141.22772461 157.2067627 142.21435547 157.89282227 C145.14274311 159.92877924 148.07133298 161.96444494 151 164 C162.82626783 172.21978709 174.64770516 180.44600752 186.44213867 188.71142578 C192.78524292 193.15467824 199.14078887 197.57983743 205.5 202 C215.19689875 208.74067513 224.87709203 215.50481404 234.54833984 222.28222656 C237.86286645 224.60457363 241.17846892 226.92538198 244.49414062 229.24609375 C246.99230959 230.99461732 249.49029566 232.74340197 251.98828125 234.4921875 C255.36003531 236.85248124 258.7325041 239.2117491 262.10546875 241.5703125 C272.06353558 248.53475636 282.00548783 255.52124612 291.92773438 262.53662109 C294.0177979 264.0125684 296.11013089 265.48524322 298.203125 266.95703125 C306.33158575 272.67622524 314.42512676 278.44007412 322.46704102 284.28051758 C325.89838038 286.77090328 329.33591566 289.24611649 332.82421875 291.65625 C340.83488672 297.20785443 347.9890401 303.2331543 355 310 C355.86367187 310.80050781 356.72734375 311.60101562 357.6171875 312.42578125 C374.97576699 328.94617388 388.63200881 353.39401093 389.29296875 377.75805664 C389.4667854 396.59760856 383.65567692 415.01930011 370.48999023 428.89746094 C362.22357988 437.02466826 352.14728351 442.8558944 341 446 C340.05382813 446.29648437 339.10765625 446.59296875 338.1328125 446.8984375 C314.12236135 453.55782472 287.94112323 447.4147447 266.45922852 435.86962891 C259.17020197 431.74446061 252.55110472 426.73546822 245.890625 421.6796875 C240.99590817 417.96638626 235.9857163 414.43805231 230.9375 410.9375 C224.55532973 406.50207683 218.22122744 402.01130864 211.9375 397.4375 C205.80060515 392.97399592 199.59107576 388.63676765 193.3125 384.375 C187.03554165 380.11396211 180.86133348 375.7510891 174.76831055 371.23168945 C167.10796244 365.56721115 159.26694249 360.159782 151.45166016 354.71240234 C147.72959946 352.11266786 144.02007456 349.49533588 140.3125 346.875 C139.6230127 346.38781494 138.93352539 345.90062988 138.22314453 345.39868164 C136.84090269 344.42182597 135.45874081 343.44485714 134.07666016 342.46777344 C131.26260166 340.47881039 128.44727504 338.49164676 125.63183594 336.50463867 C124.21178781 335.50237612 122.7918657 334.49993499 121.37207031 333.49731445 C117.84522401 331.00689439 114.31683792 328.51871538 110.78515625 326.03515625 C103.52764888 320.92767914 96.30420414 315.77954977 89.125 310.5625 C82.20307811 305.5362144 75.18062454 300.67796046 68.10375977 295.87304688 C61.93570518 291.6723401 55.87684777 287.33676174 49.84204102 282.94750977 C41.77014821 277.0851184 33.58457137 271.38836257 25.40332031 265.68017578 C19.61049389 261.63037576 13.84350435 257.54384632 8.07226562 253.46337891 C5.9822021 251.9874316 3.88986911 250.51475678 1.796875 249.04296875 C-5.46478421 243.93322287 -12.69199427 238.78231234 -19.875 233.5625 C-26.79226486 228.53959605 -33.80809509 223.6816124 -40.88305664 218.8840332 C-46.43559027 215.10616751 -51.88814007 211.20914595 -57.3125 207.25 C-76.26852813 192.17794571 -76.26852813 192.17794571 -99 188 C-103.18974234 189.55772472 -105.23659714 190.68246833 -107.49975586 194.58837891 C-108.96235711 197.87916698 -110.28511289 201.19552517 -111.5625 204.5625 C-116.02564298 215.95098564 -120.65129927 226.71078217 -128.4375 236.25 C-128.91703125 236.84570801 -129.3965625 237.44141602 -129.890625 238.05517578 C-139.31929661 249.64087839 -152.72240794 262.31414733 -168 265 C-177.10996672 265.80314568 -184.36272151 265.32658912 -192 260 C-193.02909639 259.02996875 -194.04038756 258.03881854 -195 257 C-198.41513348 258.13837783 -198.94140203 258.89901501 -201.00390625 261.7265625 C-201.57439697 262.50306152 -202.1448877 263.27956055 -202.73266602 264.07958984 C-203.33651123 264.9195752 -203.94035645 265.75956055 -204.5625 266.625 C-205.19019287 267.48947754 -205.81788574 268.35395508 -206.46459961 269.24462891 C-220.86572896 289.19088321 -233.51863256 310.23921399 -245.82446289 331.52392578 C-262.20449822 359.77984814 -262.20449822 359.77984814 -272.4375 367 C-273.03860596 367.42788818 -273.63971191 367.85577637 -274.2590332 368.29663086 C-286.74985559 376.88153889 -299.89822389 380.49410825 -315 379 C-323.99614998 376.69761455 -329.9831085 369.93546766 -334.6953125 362.2265625 C-336.25813026 358.36162996 -336.49651513 354.91912318 -336.4375 350.8125 C-336.42847656 350.06073486 -336.41945313 349.30896973 -336.41015625 348.53442383 C-335.86742381 330.96157663 -323.15912961 315.63192886 -310.9375 303.875 C-307.18110671 300.73226018 -303.19443841 298.24392734 -298.92578125 295.87109375 C-298.23276917 295.48375565 -297.53975708 295.09641754 -296.82574463 294.69734192 C-288.96245735 290.35317887 -280.90346773 286.41142131 -272.83856201 282.45892334 C-254.13130836 273.27048636 -235.77296407 263.8704298 -219.07421875 251.28125 C-216 249 -216 249 -212.95703125 247.09375 C-208.92836245 244.41175892 -206.37547751 242.71192288 -205.30859375 237.84765625 C-205.18415398 235.45152875 -205.11961762 233.05167852 -205.109375 230.65234375 C-204.69984296 216.97689878 -196.83957897 204.05041838 -187.609375 194.37109375 C-177.65815846 185.32859609 -166.00051858 180.68611811 -153.58447266 175.98828125 C-125.95066755 165.42133972 -107.56496433 151.95214319 -90.95751953 127.27197266 C-87.446451 122.06342528 -83.81231023 116.99163532 -80 112 C-75.03108388 105.48286385 -70.38169478 98.78562137 -65.78735352 92.00048828 C-62.00423691 86.42745525 -58.09947134 80.96670929 -54.08911133 75.55566406 C-50.18149348 70.27582473 -46.39290178 64.91769787 -42.61865234 59.54199219 C-38.980472 54.3679508 -35.28240544 49.2404975 -31.5625 44.125 C-27.07444208 37.94847206 -22.7185217 31.69658652 -18.4375 25.375 C-12.56408073 16.70433128 -6.36499927 8.31463869 0 0 Z " fill="#070909" transform="translate(1037,254)"/>
<path d="M0 0 C6.18738277 4.14627869 11.25325873 9.55658653 16.38208008 14.91503906 C17.04103271 15.60178711 17.69998535 16.28853516 18.37890625 16.99609375 C19.26364624 17.93473267 19.26364624 17.93473267 20.16625977 18.89233398 C21.59636376 20.47195211 21.59636376 20.47195211 23.6875 20.25 C24.71344872 18.93092307 25.68268549 17.56756452 26.625 16.1875 C33.01893975 7.71119156 43.25248415 2.04108481 53.6875 0.25 C69.13949873 -1.26053193 83.46126174 5.51432248 95.20703125 15.14453125 C105.47438719 23.859657 114.95508337 33.38988253 124.4375 42.9375 C125.73153305 44.23656504 127.02580264 45.53539449 128.3203125 46.83398438 C131.44543104 49.96995793 134.56736926 53.10906413 137.6875 56.25 C138.08654541 55.22084473 138.48559082 54.19168945 138.89672852 53.13134766 C139.43220123 51.76715319 139.96794129 50.40306365 140.50390625 49.0390625 C140.76546509 48.36238525 141.02702393 47.68570801 141.29650879 46.98852539 C145.00104785 37.60293143 150.28271971 31.23889747 159.5 26.9375 C167.86490167 25.13330552 174.25643574 26.06423118 181.6875 30.25 C182.35910156 30.61609375 183.03070312 30.9821875 183.72265625 31.359375 C192.60719387 36.73991741 199.85337877 44.65984473 207.31054688 51.80517578 C217.95290748 61.96472659 228.88751423 70.8410637 242.6875 76.25 C243.64527344 76.64058594 244.60304688 77.03117187 245.58984375 77.43359375 C247.94935004 78.38997147 250.31421221 79.32848479 252.6875 80.25 C252.71328125 81.20777344 252.7390625 82.16554688 252.765625 83.15234375 C253.93092233 113.74139868 266.84996679 139.09068296 287.6875 161.25 C288.47640625 162.13558594 288.47640625 162.13558594 289.28125 163.0390625 C301.37303274 176.05623678 322.2799326 190.37889603 340.30859375 191.625 C353.0978153 192.62198247 353.0978153 192.62198247 357.44140625 197.0703125 C359.79255926 200.89107102 361.23376101 205.02623736 362.6875 209.25 C363.27375621 210.78262712 363.86368183 212.31385501 364.45703125 213.84375 C366.37306962 218.92575664 368.05290517 224.07155779 369.6875 229.25 C369.94821289 230.06823242 370.20892578 230.88646484 370.47753906 231.72949219 C373.92044147 242.67869748 376.83558162 253.74792109 379.62109375 264.87890625 C379.882285 265.91866104 380.14347626 266.95841583 380.4125824 268.02967834 C381.73728611 273.30794047 383.04828795 278.58897364 384.33666992 283.8762207 C384.83081475 285.86289317 385.32534674 287.8494694 385.8203125 289.8359375 C386.03477524 290.73627213 386.24923798 291.63660675 386.47019958 292.56422424 C388.97109067 302.49247414 393.37871791 310.49868316 400 318.25 C401.16177739 319.64296313 402.32323695 321.03619139 403.484375 322.4296875 C404.03931641 323.08936523 404.59425781 323.74904297 405.16601562 324.42871094 C407.07169145 326.70989541 408.91397624 329.03754119 410.75 331.375 C418.71684125 341.34607804 427.16616676 350.8786803 435.8671875 360.2109375 C438.44945161 362.98227587 440.97967692 365.79711207 443.5 368.625 C447.09736485 372.64249506 450.83070423 376.48270203 454.6875 380.25 C450.15758204 385.68733055 445.34455784 390.71458931 440.3125 395.6875 C439.57644531 396.41904297 438.84039063 397.15058594 438.08203125 397.90429688 C436.28613926 399.68852723 434.48794015 401.47036124 432.6875 403.25 C429.67361927 401.89941886 427.5840323 400.39395225 425.26171875 398.0546875 C424.63346191 397.42522217 424.00520508 396.79575684 423.35791016 396.1472168 C422.7035498 395.47988525 422.04918945 394.81255371 421.375 394.125 C420.70001465 393.44284424 420.0250293 392.76068848 419.32958984 392.05786133 C415.51946651 388.18536028 411.78851233 384.27645337 408.28125 380.125 C406.34424129 377.84616622 404.32844375 375.64675343 402.3125 373.4375 C398.41508553 369.11874343 394.71449645 364.67237949 391.05859375 360.1484375 C388.99055131 357.62045152 386.88104521 355.13543548 384.7487793 352.66162109 C380.17201096 347.33412285 375.76047279 341.89652257 371.5 336.3125 C371.03746826 335.71735596 370.57493652 335.12221191 370.09838867 334.5090332 C361.44211599 323.00632167 356.45980178 311.92292733 353.25 298 C352.88099479 296.47798983 352.50943756 294.95659641 352.13549805 293.43579102 C351.36302985 290.28928493 350.59932971 287.14085617 349.84179688 283.99072266 C347.99677533 276.36326257 346.00400519 268.77445567 344 261.1875 C343.81262268 260.47435638 343.62524536 259.76121277 343.43218994 259.02645874 C340.87546942 249.31579205 338.07004625 239.74311258 334.68359375 230.28515625 C333.6875 227.25 333.6875 227.25 333.6875 224.25 C332.52863281 224.14042969 331.36976563 224.03085938 330.17578125 223.91796875 C325.80762186 223.36750573 321.964446 222.15455127 317.875 220.5625 C317.18575439 220.30138428 316.49650879 220.04026855 315.78637695 219.77124023 C310.51989606 217.71843374 305.65249578 215.20410922 300.82421875 212.25390625 C298.58375628 210.90145399 298.58375628 210.90145399 295.6875 212.25 C296.58949069 216.58991083 298.84914576 219.68452903 301.375 223.25 C301.85396729 223.93698975 302.33293457 224.62397949 302.82641602 225.33178711 C304.43994152 227.6427339 306.06270253 229.94696565 307.6875 232.25 C309.54987062 234.89167812 311.41162533 237.53377194 313.27075195 240.17773438 C314.48203129 241.89888336 315.69657464 243.61774115 316.91479492 245.33398438 C320.10411472 249.85716907 323.03362805 254.39217542 325.6875 259.25 C322.07382022 257.90979265 318.94183797 256.29016455 315.6875 254.23046875 C314.72908203 253.6271875 313.77066406 253.02390625 312.78320312 252.40234375 C311.76162109 251.75394531 310.74003906 251.10554688 309.6875 250.4375 C307.51068137 249.06598603 305.33359331 247.6948996 303.15625 246.32421875 C302.06570313 245.63634277 300.97515625 244.9484668 299.8515625 244.23974609 C295.31209627 241.38506633 290.75113745 238.56581454 286.1875 235.75 C278.46658874 230.97840858 270.76005303 226.18418329 263.0625 221.375 C261.60553711 220.46524414 261.60553711 220.46524414 260.11914062 219.53710938 C254.35494173 215.93300149 248.61239673 212.29726503 242.88916016 208.62841797 C240.75884539 207.24584659 240.75884539 207.24584659 238.6875 206.25 C230.27335943 211.99624234 225.35769288 221.6337475 223.125 231.4296875 C218.44145321 261.62183733 236.77244961 290.89925703 253.6875 314.25 C254.3475 314.91 255.0075 315.57 255.6875 316.25 C255.50021786 318.934833 254.91549073 320.02346144 253.00097656 321.92578125 C252.28393555 322.46589844 251.56689453 323.00601562 250.828125 323.5625 C249.64863281 324.46355469 249.64863281 324.46355469 248.4453125 325.3828125 C247.61773438 325.99898437 246.79015625 326.61515625 245.9375 327.25 C244.31762075 328.47905124 242.6978268 329.70821492 241.078125 330.9375 C240.31435547 331.50984375 239.55058594 332.0821875 238.76367188 332.671875 C237.05579383 333.97005511 235.38884505 335.32190567 233.734375 336.6875 C231.6875 338.25 231.6875 338.25 229.6875 338.25 C228.34985352 336.71557617 228.34985352 336.71557617 226.81640625 334.54296875 C226.24752686 333.73859375 225.67864746 332.93421875 225.0925293 332.10546875 C224.48449463 331.22503906 223.87645996 330.34460937 223.25 329.4375 C222.62327393 328.53257812 221.99654785 327.62765625 221.35083008 326.6953125 C201.27104611 297.33988808 183.21439022 262.11453852 189.875 225.5 C193.76953364 208.23725321 202.47278095 194.70768814 214.6875 182.25 C208.84176623 175.09699896 202.2623035 168.669018 195.74072266 162.14208984 C194.42259477 160.81932755 193.10466275 159.49637005 191.78691101 158.17323303 C188.22118977 154.59445123 184.65219054 151.01895679 181.08216143 147.44447279 C178.84938384 145.20875597 176.61719102 142.9724569 174.3851738 140.73598099 C167.39397797 133.73113088 160.40079712 126.7282716 153.40470564 119.72831094 C145.34175738 111.66087805 137.28539682 103.58694204 129.23468935 95.50729406 C123.00031148 89.25128703 116.76016847 83.00106893 110.51563489 76.75519907 C106.79059284 73.02911047 103.06800578 69.30064659 99.35139847 65.56614304 C95.85645132 62.05469257 92.35438315 58.55050264 88.84679604 55.05167961 C87.56392622 53.76957878 86.28359857 52.48492821 85.00607491 51.19750023 C73.78352432 39.02459633 73.78352432 39.02459633 58.6875 34 C55.48855832 34.02732556 55.48855832 34.02732556 52.75 35.625 C50.43128495 39.17127008 50.44020522 41.51876239 51.01090145 45.65827274 C53.23534252 54.17904854 62.43953209 61.27780549 68.47827148 67.26782227 C69.44523922 68.23422443 70.41176395 69.20107002 71.37788391 70.1683197 C73.97623574 72.76724034 76.58066342 75.35999094 79.18630862 77.9515965 C81.91786568 80.67056673 84.64367929 83.39528308 87.37013245 86.11936951 C92.52245375 91.26549925 97.67984732 96.40651375 102.8391276 101.54566568 C108.71740345 107.40150982 114.58993399 113.26310143 120.46201217 119.12515938 C132.53083728 131.17313519 144.60678205 143.21394962 156.6875 155.25 C154.98895963 158.87083128 152.97645218 161.19255354 150.1171875 164.015625 C149.22128906 164.90507813 148.32539062 165.79453125 147.40234375 166.7109375 C145.99662109 168.09152344 145.99662109 168.09152344 144.5625 169.5 C143.60761363 170.44484856 142.65318141 171.39015633 141.69921875 172.3359375 C139.36640913 174.64518338 137.02905914 176.94963203 134.6875 179.25 C130.0756456 175.39584206 125.70121518 171.40072965 121.47744751 167.1265564 C120.89386864 166.54030412 120.31028977 165.95405185 119.70902669 165.35003436 C117.77316935 163.40419483 115.84096358 161.4547703 113.90869141 159.50537109 C112.51366869 158.10187236 111.11838276 156.69863522 109.72285461 155.29563904 C106.72715527 152.28327107 103.73284061 149.26953578 100.73945999 146.25486374 C96.00261803 141.48531045 91.25973939 136.7217916 86.51547241 131.95962524 C85.71347117 131.15453754 84.91146993 130.34944983 84.08516562 129.51996553 C82.44579299 127.87428557 80.80641156 126.22861439 79.16702151 124.58295178 C68.12955409 113.50252846 57.09661413 102.41765742 46.078125 91.31835938 C38.63518727 83.82092956 31.18338241 76.33243834 23.7213167 68.85404456 C19.77682667 64.90018933 15.83704546 60.94188318 11.90813065 56.97254562 C8.2137484 53.24025961 4.50782331 49.51983619 0.79282188 45.80807686 C-0.56559386 44.44669639 -1.91973993 43.08103958 -3.26917458 41.7107563 C-12.38343223 31.7853869 -12.38343223 31.7853869 -24.3125 26.25 C-28.59563119 26.24990697 -32.25450299 26.89733433 -36.3125 28.25 C-38.90576118 33.70949723 -39.41264296 39.60137539 -37.66715717 45.39027977 C-33.57726997 54.50342306 -26.34141411 60.88440785 -19.3425293 67.78759766 C-17.90231177 69.22640311 -16.46319772 70.66631384 -15.02510071 72.10723877 C-11.13580792 75.99796087 -7.23133872 79.87311787 -3.32388282 83.74558687 C0.76368913 87.80181487 4.83702231 91.87229141 8.91191101 95.94125366 C16.62243428 103.63626218 24.3456094 111.31844055 32.07345408 118.99604928 C40.8741043 127.74073256 49.66049118 136.49968787 58.44573081 145.25984883 C76.51053581 163.27244929 94.59310777 181.26712477 112.6875 199.25 C110.98895963 202.87083128 108.97645218 205.19255354 106.1171875 208.015625 C105.22128906 208.90507813 104.32539062 209.79453125 103.40234375 210.7109375 C101.99662109 212.09152344 101.99662109 212.09152344 100.5625 213.5 C99.60761363 214.44484856 98.65318141 215.39015633 97.69921875 216.3359375 C95.36640913 218.64518338 93.02905914 220.94963203 90.6875 223.25 C84.84001818 218.40111231 79.49080303 213.17047887 74.1472168 207.77563477 C73.20699914 206.83021323 72.26653181 205.88503994 71.32583618 204.94009399 C69.31221709 202.9165929 67.30008258 200.8916314 65.2890377 198.86557198 C62.10113328 195.65443529 58.90820661 192.44832383 55.71430969 189.2431488 C46.63662634 180.13217216 37.56314613 171.01703923 28.50024414 161.89135742 C23.4857533 156.8422152 18.46581613 151.79855366 13.43988925 146.7607941 C10.27124941 143.58411152 7.10925514 140.4010108 3.95215833 137.21285832 C1.97678827 135.22134395 -0.00498532 133.23629609 -1.98853683 131.2529335 C-3.32756726 129.91037451 -4.65911174 128.56036184 -5.99031067 127.21003723 C-13.51031688 119.71460379 -21.08809761 113.46879334 -31.3125 110.25 C-33.11287862 121.65962834 -31.20487035 129.17014385 -24.50358391 138.51642609 C-20.89668098 143.01636135 -16.73359133 146.89931939 -12.50251389 150.79852295 C-10.20769558 152.91356267 -7.93244083 155.0492582 -5.65508068 157.18306017 C-4.42971691 158.33063013 -3.20333398 159.4771127 -1.97598755 160.62256193 C5.95408166 168.02771671 13.76275524 175.55985092 21.58019912 183.0834918 C29.16304453 190.37952229 36.77746934 197.63264822 44.51147461 204.76855469 C52.65550144 212.29412874 60.68694942 219.92379238 68.55859375 227.734375 C69.18888095 228.35952688 69.81916816 228.98467876 70.46855497 229.62877464 C84.74101754 243.88835753 97.1312031 256.51421897 97.60646057 277.81646729 C97.33154502 286.5194645 96.02996592 294.87339038 93.6875 303.25 C93.0275 303.25 92.3675 303.25 91.6875 303.25 C90.25649548 301.8012228 90.25649548 301.8012228 88.5879364 299.7855072 C84.6868732 295.20176923 80.53188479 290.93958186 76.28051758 286.68188477 C75.06431732 285.45823715 75.06431732 285.45823715 73.82354736 284.20986938 C71.16246806 281.53428451 68.49759987 278.86251822 65.83203125 276.19140625 C64.91566076 275.27220839 63.99929028 274.35301052 63.05515099 273.40595818 C58.70467508 269.0420718 54.35245609 264.67994156 49.99721032 260.32081562 C45.00477361 255.32390375 40.01893785 250.32052813 35.03877717 245.31138188 C31.16444143 241.41529712 27.28423111 237.52512519 23.39967078 233.63923496 C21.09078495 231.32931079 18.78505512 229.01638812 16.48395729 226.69870186 C-1.48006145 207.9276604 -1.48006145 207.9276604 -24.3125 196.25 C-25.6325 196.25 -26.9525 196.25 -28.3125 196.25 C-29.17702219 209.65009392 -22.72738815 218.4864318 -14.3125 228.25 C-10.52340058 232.50188146 -6.61405046 236.63861891 -2.69726562 240.77246094 C-1.04237169 242.53822577 0.55013923 244.35016244 2.125 246.1875 C6.05160377 250.73768352 10.18431326 255.09499965 14.29272461 259.48022461 C17.94788193 263.38263263 21.5812554 267.3023358 25.1875 271.25 C31.04289959 277.65407539 36.96610363 283.99370966 42.89355469 290.33105469 C45.22943993 292.82970167 47.56225128 295.33120697 49.89501953 297.83276367 C52.21533071 300.32040183 54.53721811 302.80656528 56.859375 305.29248047 C58.12278136 306.64531063 59.38577597 307.99852541 60.6484375 309.35205078 C62.63940043 311.48584787 64.63203847 313.61806966 66.625 315.75 C67.22755615 316.39638428 67.8301123 317.04276855 68.45092773 317.70874023 C71.31365931 320.76799982 74.20587613 323.77894646 77.19140625 326.71875 C79.47348904 328.98110567 81.61405366 331.29528079 83.69140625 333.74609375 C89.00238333 339.89556819 94.84230381 345.55327139 100.59350586 351.28637695 C102.6201298 353.30764268 104.64135547 355.33419574 106.66210938 357.36132812 C112.83552767 363.5379319 119.01355032 369.609941 125.6875 375.25 C127.46320221 376.86967817 129.23458307 378.49411718 131 380.125 C135.46489026 384.19737244 140.05358155 388.05628598 144.7578125 391.84765625 C147.42595743 394.0355351 150.03249802 396.27556394 152.6315918 398.54394531 C160.06816421 405.02139671 167.78675021 411.016582 175.75 416.83154297 C177.59187456 418.17999196 179.42163613 419.54347466 181.25 420.91015625 C189.65035921 427.12494998 198.44028368 432.39162938 207.6875 437.25 C208.42919434 437.64638672 209.17088867 438.04277344 209.93505859 438.45117188 C216.68775093 441.9605525 223.65429619 444.56662178 230.8125 447.125 C267.39585323 460.47044534 296.56197869 479.29637541 324.6875 506.25 C324.15863167 510.33335544 322.09120962 512.19353018 319.21484375 515.015625 C318.31572266 515.90507813 317.41660156 516.79453125 316.49023438 517.7109375 C315.54470703 518.63132812 314.59917969 519.55171875 313.625 520.5 C312.66533027 521.44461673 311.70633771 522.38992195 310.74804688 523.3359375 C308.40111172 525.64749172 306.04746609 527.9517634 303.6875 530.25 C299.57309982 528.35575464 296.71497672 525.56272889 293.5 522.4375 C272.29447657 502.35013208 248.33466803 489.13551527 221.02862549 479.19940186 C199.14045117 471.22444257 179.49701855 461.08878537 160.6875 447.25 C159.96369141 446.71761719 159.23988281 446.18523437 158.49414062 445.63671875 C138.88655204 431.10341143 120.23831101 415.24119147 102.328125 398.671875 C100.08397808 396.61363374 97.81037068 394.60791656 95.5 392.625 C91.78396277 389.4090506 88.36087923 385.94152427 84.9140625 382.44140625 C82.86350623 380.42322719 80.75647169 378.54686983 78.5625 376.6875 C75.32787741 373.90774621 72.61715959 370.93413679 69.8671875 367.68359375 C66.93381004 364.40851462 63.81374286 361.33996703 60.6875 358.25 C56.41206213 354.01961944 52.27797805 349.76601951 48.390625 345.171875 C45.45371452 341.85774666 42.25055586 338.80625156 39.1015625 335.6953125 C36.39998706 332.95876521 33.89671265 330.10020634 31.3984375 327.1796875 C28.94298723 324.41029838 26.29653661 321.84964876 23.66015625 319.25390625 C21.11412171 316.66753849 18.76728443 313.9346472 16.40234375 311.18359375 C14.21577921 308.71810526 11.88080039 306.43023273 9.52954102 304.12329102 C7.75944892 302.32316952 6.1056598 300.46934326 4.4609375 298.5546875 C0.69066586 294.21817728 -3.23092412 290.04114532 -7.1875 285.875 C-12.25153705 280.51917438 -17.27556071 275.13972701 -22.17578125 269.6328125 C-24.2231157 267.34967901 -26.30197261 265.0981653 -28.38818359 262.85058594 C-46.29630709 243.51202268 -62.85096452 223.3892033 -62.58984375 195.85546875 C-61.73122265 184.69339447 -56.12477254 176.48257291 -47.9375 169.25 C-46.73590153 168.24191739 -45.52999344 167.23882716 -44.3125 166.25 C-45.281875 165.38375 -46.25125 164.5175 -47.25 163.625 C-59.05425906 151.82074094 -66.71248012 135.74533973 -66.75 119.0625 C-66.73155825 104.86481477 -62.03365491 95.09371292 -52.09765625 85 C-51.50855469 84.4225 -50.91945313 83.845 -50.3125 83.25 C-51.38177734 82.25033203 -51.38177734 82.25033203 -52.47265625 81.23046875 C-64.59907472 69.66594937 -72.15194592 57.67821596 -72.83398438 40.50634766 C-73.0249325 27.67417928 -70.79439783 17.29915619 -62.25390625 7.24609375 C-45.73071963 -9.74253475 -20.31486449 -11.4666124 0 0 Z " fill="#080A0A" transform="translate(1183.3125,1222.75)"/>
<path d="M0 0 C10.43089004 8.55420271 19.15900292 18.36955429 26.75 29.5 C27.97101001 31.26716493 29.19237003 33.03408806 30.4140625 34.80078125 C31.01637695 35.67557129 31.61869141 36.55036133 32.23925781 37.45166016 C34.84044901 41.21639029 37.48072487 44.9529645 40.125 48.6875 C41.10684597 50.07676982 42.0886171 51.46609253 43.0703125 52.85546875 C43.55274414 53.53786621 44.03517578 54.22026367 44.53222656 54.92333984 C47.02320986 58.44767516 49.51144903 61.97394701 52 65.5 C52.99998722 66.91667568 53.99998722 68.33334236 55 69.75 C61 78.25 67 86.75 73 95.25 C73.49483887 95.9510083 73.98967773 96.6520166 74.49951172 97.37426758 C75.50119043 98.79333958 76.5028179 100.21244775 77.50439453 101.6315918 C79.97829495 105.13675274 82.45303366 108.64131515 84.9296875 112.14453125 C90.90402057 120.59757697 96.85199034 129.06859593 102.78417969 137.55126953 C108.49790894 145.71846719 114.24560744 153.86142472 120 162 C126.95267995 171.83334186 133.88239169 181.68212824 140.78417969 191.55126953 C146.49790894 199.71846719 152.24560744 207.86142472 158 216 C164.95420331 225.83549638 171.88583116 235.68616613 178.78857422 245.55786133 C182.51248826 250.88132611 186.24954179 256.1952075 190 261.5 C194.95185729 268.50409761 199.87363783 275.52889252 204.7890625 282.55859375 C208.51284227 287.88179435 212.24971114 293.19544705 216 298.5 C220.95185729 305.50409761 225.87363783 312.52889252 230.7890625 319.55859375 C234.51284227 324.88179435 238.24971114 330.19544705 242 335.5 C246.94153474 342.489497 251.85318542 349.49955705 256.75830078 356.51464844 C262.48024031 364.69432309 268.23588733 372.85000919 274 381 C270.64876131 384.46700876 267.21045652 387.51789788 263.375 390.4375 C262.83302979 390.8507251 262.29105957 391.2639502 261.73266602 391.68969727 C254.21845454 397.3920301 246.60124218 402.95859193 238.99194336 408.53295898 C236.98581517 410.01044695 234.99100735 411.50221631 233 413 C229.23618138 411.49278852 227.41536518 409.35083069 224.9375 406.1875 C224.14988281 405.19878906 223.36226562 404.21007813 222.55078125 403.19140625 C222.13521973 402.66820801 221.7196582 402.14500977 221.29150391 401.60595703 C219.11858468 398.90397921 216.87158672 396.26576673 214.625 393.625 C214.16552979 393.08335205 213.70605957 392.5417041 213.23266602 391.98364258 C211.8226566 390.32167945 210.4114973 388.66069959 209 387 C203.80780978 380.89111965 198.61876419 374.78489359 193.5625 368.5625 C189.60491812 363.69870975 185.53457554 358.94118769 181.44165039 354.19165039 C177.66665609 349.8019965 173.99271539 345.33885229 170.34375 340.84375 C167.60697951 337.52313514 164.8089705 334.25953218 162 331 C157.70027287 326.01059233 153.49514591 320.95778844 149.34375 315.84375 C146.60697951 312.52313514 143.8089705 309.25953218 141 306 C136.70027287 301.01059233 132.49514591 295.95778844 128.34375 290.84375 C125.60697951 287.52313514 122.8089705 284.25953218 120 281 C115.70027287 276.01059233 111.49514591 270.95778844 107.34375 265.84375 C104.60697951 262.52313514 101.8089705 259.25953218 99 256 C95.44546839 251.87531796 91.93207857 247.72792288 88.5 243.5 C84.11287098 238.09923828 79.58776588 232.825323 75.05078125 227.55078125 C68.80572679 220.28968997 62.6036885 212.99446571 56.5625 205.5625 C52.15086945 200.14429421 47.60676358 194.8472915 43.05078125 189.55078125 C36.82477633 182.31183876 30.6391376 175.04134091 24.625 167.625 C20.45843577 162.50266476 16.13798719 157.52582622 11.79956055 152.54956055 C7.87510903 148.03784637 4.06573217 143.44674445 0.30078125 138.80078125 C-2.88035204 134.92833207 -6.14753555 131.13271217 -9.41601562 127.33398438 C-12.81553126 123.38296303 -16.19835138 119.41868036 -19.5625 115.4375 C-20.01294678 114.90455322 -20.46339355 114.37160645 -20.92749023 113.82250977 C-22.73707308 111.68066713 -24.54576529 109.53807327 -26.35449219 107.39550781 C-31.52895669 101.2673623 -36.71673378 95.15127683 -41.9375 89.0625 C-42.43483643 88.48193848 -42.93217285 87.90137695 -43.44458008 87.30322266 C-45.97849227 84.34760531 -48.51989473 81.39893737 -51.07421875 78.4609375 C-81.90141184 42.93762551 -81.90141184 42.93762551 -81.28515625 20.109375 C-80.31424961 9.52250261 -74.78825478 1.06138735 -67.23828125 -6.17578125 C-47.15622825 -22.54282968 -18.89637725 -14.05996181 0 0 Z " fill="#FEFEFE" transform="translate(1525,724)"/>
<path d="M0 0 C4.87805584 1.60711142 8.63596972 4.39600465 12.75 7.375 C14.27594459 8.46628159 15.80198903 9.55742356 17.328125 10.6484375 C18.10478516 11.2062793 18.88144531 11.76412109 19.68164062 12.33886719 C23.27366605 14.91259728 26.887171 17.45560037 30.5 20 C31.92069941 21.00242491 33.34127207 22.00502949 34.76171875 23.0078125 C35.81431885 23.7507959 35.81431885 23.7507959 36.88818359 24.50878906 C38.97412394 25.98172821 41.05941515 27.45558181 43.14453125 28.9296875 C50.75009937 34.30505144 58.36776805 39.66255014 66 45 C74.32401819 50.82123683 82.62918349 56.668542 90.92333984 62.53222656 C94.44767513 65.02320984 97.97392472 67.51148065 101.5 70 C105.71576254 72.97526452 109.93118778 75.95099792 114.14453125 78.9296875 C121.75009937 84.30505144 129.36776805 89.66255014 137 95 C145.32401819 100.82123683 153.62918349 106.668542 161.92333984 112.53222656 C165.44767516 115.02320986 168.97394701 117.51144903 172.5 120 C173.91667568 120.99998722 175.33334236 121.99998722 176.75 123 C177.45125 123.495 178.1525 123.99 178.875 124.5 C202.25 141 202.25 141 204.37426758 142.49951172 C205.79333958 143.50119043 207.21244775 144.5028179 208.6315918 145.50439453 C212.13675274 147.97829495 215.64131515 150.45303366 219.14453125 152.9296875 C226.75009937 158.30505144 234.36776805 163.66255014 242 169 C250.32401819 174.82123683 258.62918349 180.668542 266.92333984 186.53222656 C270.44767516 189.02320986 273.97394701 191.51144903 277.5 194 C278.91667568 194.99998722 280.33334236 195.99998722 281.75 197 C282.45125 197.495 283.1525 197.99 283.875 198.5 C291.66666667 204 299.45833333 209.5 307.25 215 C308.30247925 215.74286255 308.30247925 215.74286255 309.3762207 216.50073242 C310.78898086 217.49806087 312.20157927 218.49561848 313.61401367 219.4934082 C317.21413964 222.0362126 320.81722547 224.57463867 324.42578125 227.10546875 C328.62819395 230.0549304 332.81999636 233.01886243 337 236 C337.56589844 236.4031543 338.13179687 236.80630859 338.71484375 237.22167969 C355.96006835 249.58637923 373.14574127 265.13710158 377.71484375 286.91796875 C379.20043519 297.7648213 377.26971349 306.90570606 370.75 315.8125 C364.07848068 323.7615443 355.34948067 329.37321037 345 331 C323.74388112 332.48364857 306.68290437 322.98400074 291.0546875 309.44921875 C289.23786166 307.7850891 287.43039092 306.11068347 285.6328125 304.42578125 C282.19648653 301.25967082 278.58340093 298.34836651 274.94921875 295.4140625 C271.5863153 292.66138127 268.29070431 289.83818231 265 287 C260.87548294 283.44528455 256.72791495 279.93207214 252.5 276.5 C248.27207137 273.06791676 244.12479923 269.5544016 240 266 C234.07890544 260.90036606 228.07146973 255.92013918 222 251 C215.55381743 245.76188678 209.16575148 240.46458777 202.83642578 235.08642578 C198.54027727 231.44163292 194.1864945 227.87227136 189.81640625 224.31640625 C186.66214808 221.72212734 183.5479702 219.08393735 180.4375 216.4375 C176.66911061 213.23260809 172.87753972 210.07312306 169 207 C164.54906837 203.4724383 160.21680023 199.81977957 155.89111328 196.14111328 C150.65125391 191.69008308 145.33491277 187.33656652 140 183 C133.52879744 177.73978271 127.11861568 172.41843127 120.76611328 167.01611328 C116.77056534 163.62778426 112.7002399 160.3469433 108.59375 157.09375 C104.94598567 154.14916916 101.3854602 151.10548467 97.81640625 148.06640625 C94.58575688 145.32225467 91.32301946 142.63252191 88 140 C83.52068094 136.45144854 79.16659964 132.77063124 74.81640625 129.06640625 C71.58575688 126.32225467 68.32301946 123.63252191 65 121 C60.52068094 117.45144854 56.16659964 113.77063124 51.81640625 110.06640625 C48.58575688 107.32225467 45.32301946 104.63252191 42 102 C38.0985802 98.90926483 34.28908648 95.72621494 30.5 92.5 C26.00500287 88.67484303 21.45662264 84.93782587 16.83203125 81.26953125 C13.17325732 78.33746552 9.55479572 75.35799671 5.9375 72.375 C5.21457764 71.77888916 4.49165527 71.18277832 3.74682617 70.56860352 C0.74100607 68.0888927 -2.26374774 65.60789145 -5.26855469 63.12695312 C-13.466658 56.35970111 -21.66285697 49.59597066 -30 43 C-29.3875012 39.76968584 -28.30155659 37.73863773 -26.33203125 35.12109375 C-25.4961145 33.99936768 -25.4961145 33.99936768 -24.64331055 32.85498047 C-24.03914307 32.05721191 -23.43497559 31.25944336 -22.8125 30.4375 C-21.54405051 28.74105014 -20.27582835 27.04443027 -19.0078125 25.34765625 C-18.35071289 24.47254395 -17.69361328 23.59743164 -17.01660156 22.69580078 C-13.71109106 18.27698154 -10.45205457 13.82411057 -7.1875 9.375 C-6.0152953 7.77793167 -4.84220137 6.18151541 -3.66796875 4.5859375 C-3.17578857 3.9161084 -2.6836084 3.2462793 -2.17651367 2.55615234 C-1 1 -1 1 0 0 Z " fill="#FEFEFE" transform="translate(1016,340)"/>
<path d="M0 0 C4.72199666 4.3307201 8.20794894 9.28627309 11.8125 14.5625 C12.40998047 15.41263672 13.00746094 16.26277344 13.62304688 17.13867188 C14.18701172 17.96044922 14.75097656 18.78222656 15.33203125 19.62890625 C15.84483643 20.37213135 16.3576416 21.11535645 16.88598633 21.88110352 C18 24 18 24 18 28 C16.671875 29.65625 16.671875 29.65625 14.75 31.5 C9.66658438 36.91749444 6.15342193 43.12547161 2.47753906 49.55273438 C-5.41272865 63.20794517 -14.27897549 74.14481089 -29.90380859 78.53491211 C-33.33781359 79.29682447 -36.81231187 79.14450683 -40.3125 79.125 C-41.1070459 79.1252417 -41.9015918 79.1254834 -42.72021484 79.12573242 C-47.89643427 79.09940216 -52.9713316 78.78384053 -58.125 78.3125 C-64.63383538 77.84708701 -69.29505512 77.84788721 -74.4921875 82.26953125 C-77.55910554 85.54367348 -79.81557446 89.2853499 -82.16845703 93.09008789 C-82.7347583 94.00455688 -82.7347583 94.00455688 -83.3125 94.9375 C-83.68874512 95.54650146 -84.06499023 96.15550293 -84.45263672 96.78295898 C-87.85987699 102.12825593 -91.94978168 106.15562577 -97 110 C-88.89401128 110 -82.77351363 104.42871547 -76.890625 99.44140625 C-72.09289466 95.38926914 -67.1430285 91.6029075 -62 88 C-61.21367188 87.44699219 -60.42734375 86.89398437 -59.6171875 86.32421875 C-52.14269633 81.82685542 -43.43192296 81.5350879 -35 83 C-30.74733011 84.20744558 -26.65418625 85.76041627 -22.59594727 87.50878906 C-17.43285463 89.70565956 -13.63143054 90.58586008 -8 90 C-1.72140099 86.95791013 2.55800324 79.84078568 6.71972656 74.41552734 C19.95830568 57.29636129 35.56512149 47.80796874 57.08349609 44.69897461 C64.91272657 43.77429442 72.75556259 43.88790664 80.625 43.9375 C82.02473797 43.94252803 83.4244777 43.94708862 84.82421875 43.95117188 C88.21619169 43.96286833 91.60807233 43.97925914 95 44 C95.11819618 51.08438356 94.65844024 58.01096097 94 65.0625 C93.90460938 66.11888672 93.80921875 67.17527344 93.7109375 68.26367188 C93.47753261 70.84279586 93.24048257 73.42152799 93 76 C92.39752441 76.01458252 91.79504883 76.02916504 91.17431641 76.04418945 C63.31081941 75.81147853 63.31081941 75.81147853 39.125 87.375 C35.15554955 91.5969801 31.68152139 96.19865849 28.1394043 100.77685547 C18.99127087 112.51593251 9.10853561 121.45361759 -6 124 C-16.8342713 125.12078669 -26.858614 122.26073894 -36.6484375 117.76953125 C-39.63382757 116.79258467 -41.87431101 116.66539622 -45 117 C-47.37102111 118.32345164 -47.37102111 118.32345164 -49.5 120.3125 C-50.78583984 121.39917969 -50.78583984 121.39917969 -52.09765625 122.5078125 C-53.05542969 123.33023438 -54.01320313 124.15265625 -55 125 C-71.42366939 138.76524948 -88.48465804 146.04827689 -110.25 145.37890625 C-120.24833855 144.36865746 -130.46182101 140.88859644 -138 134 C-138 130 -138 130 -136.25 127.859375 C-135.5075 127.16328125 -134.765 126.4671875 -134 125.75 C-133.2575 125.04359375 -132.515 124.3371875 -131.75 123.609375 C-130.88375 122.81273437 -130.88375 122.81273437 -130 122 C-131.20329956 121.96241577 -131.20329956 121.96241577 -132.4309082 121.92407227 C-136.05827074 121.80817957 -139.68536917 121.68542249 -143.3125 121.5625 C-144.57513672 121.52318359 -145.83777344 121.48386719 -147.13867188 121.44335938 C-148.34716797 121.40146484 -149.55566406 121.35957031 -150.80078125 121.31640625 C-151.91622314 121.27974854 -153.03166504 121.24309082 -154.1809082 121.20532227 C-157 121 -157 121 -160 120 C-159.39969169 112.69808624 -158.29701918 105.57132416 -156.9375 98.375 C-156.75123047 97.37082031 -156.56496094 96.36664062 -156.37304688 95.33203125 C-155.91902767 92.88731245 -155.46129456 90.44335452 -155 88 C-153.88625 88.04640625 -152.7725 88.0928125 -151.625 88.140625 C-138.64139214 88.51297643 -124.03355142 87.76686476 -113 80 C-111.00258508 77.64439447 -109.58461165 75.08774321 -108.125 72.375 C-101.6895018 61.35447432 -94.01432999 52.96984526 -82 48 C-81.36932617 47.72422119 -80.73865234 47.44844238 -80.08886719 47.16430664 C-74.37525204 45.03126479 -69.15266223 44.82720609 -63.140625 44.98828125 C-62.34237305 45.00933426 -61.54412109 45.03038727 -60.72167969 45.05207825 C-57.38332953 45.15368903 -54.04724653 45.27286003 -50.71142578 45.4387207 C-41.32506698 46.2637677 -41.32506698 46.2637677 -32.71435547 43.50878906 C-31.10302501 41.41525074 -30.06843056 39.41233171 -29 37 C-28.11108855 35.5352271 -27.20719258 34.07945011 -26.2890625 32.6328125 C-25.39913025 31.1313396 -24.51114661 29.62871024 -23.625 28.125 C-17.3534879 17.69131 -10.30212441 6.86808294 0 0 Z " fill="#080A0A" transform="translate(849,596)"/>
<path d="M0 0 C17.06131186 0.97752581 17.06131186 0.97752581 25.5 2.0625 C26.23863281 2.15337891 26.97726562 2.24425781 27.73828125 2.33789062 C29.49271668 2.55434694 31.24645229 2.77646607 33 3 C31.85122852 64.36724532 31.85122852 64.36724532 9.96484375 85.51171875 C5.90862991 88.91594565 1.58355458 91.80714118 -2.91015625 94.60180664 C-6.26826813 96.70896915 -9.06768796 98.47719285 -11 102 C-12.23108816 108.31234418 -10.31428763 114.17295436 -8 120 C-7.071875 118.7315625 -7.071875 118.7315625 -6.125 117.4375 C-0.5888697 110.91548349 6.83805985 107.04603804 14.29174805 103.09179688 C23.3600019 98.2786017 30.91641879 93.48974986 38 86 C41.50827915 87.52079073 43.95271646 89.5995673 46.75 92.1875 C47.62269531 92.98671875 48.49539063 93.7859375 49.39453125 94.609375 C50.25433594 95.39828125 51.11414063 96.1871875 52 97 C53.47418404 98.31809396 54.9528392 99.63121803 56.4375 100.9375 C57.36369141 101.75541016 57.36369141 101.75541016 58.30859375 102.58984375 C60.15617506 104.18122039 60.15617506 104.18122039 63 106 C57.0223936 119.53305815 39.56918011 128.03558306 26.92333984 134.31274414 C23.36046083 136.11178777 20.47733774 137.83245871 18 141 C18.07378688 145.42721286 18.8842342 149.41996512 19.75 153.7578125 C22.44951357 167.35996198 23.91213299 179.31426744 16.578125 191.6640625 C10.46240971 200.71653216 2.25458122 207.31472904 -6.23046875 214.01953125 C-7.18602661 214.78728882 -7.18602661 214.78728882 -8.16088867 215.57055664 C-9.82464049 216.86370239 -11.56556723 218.0560194 -13.3125 219.234375 C-17.14921295 223.18262031 -17.76961224 227.14255756 -18.8125 232.4375 C-19.11704102 233.8306543 -19.11704102 233.8306543 -19.42773438 235.25195312 C-21.01886893 242.62998628 -22.14700657 249.84162723 -22.5625 257.375 C-22.60568359 258.11105469 -22.64886719 258.84710937 -22.69335938 259.60546875 C-22.79843799 261.40348068 -22.89962093 263.20171958 -23 265 C-46.99516389 265.20638953 -46.99516389 265.20638953 -56 264 C-56.48741178 253.61993429 -55.03977033 244.13814418 -53 234 C-54.65 234.33 -56.3 234.66 -58 235 C-63.43291146 213.21560745 -69.83721859 186.07101032 -58.33984375 165.17578125 C-55.33923968 160.30308017 -51.99951333 156.93734456 -47.4375 153.5625 C-43.21563883 150.35388551 -40.99372177 147.94096265 -39 143 C-38.45602162 136.09683771 -40.08480057 130.34559645 -42 123.75 C-45.88340068 109.51086419 -46.83871793 97.69423207 -39.4921875 84.23828125 C-34.05080073 75.974966 -27.06199714 70.25679209 -18.8125 64.9375 C-8.99527872 58.47584737 -5.6035552 52.54910382 -3 41 C-2.2618711 35.67222344 -1.76935242 30.37060634 -1.46484375 25 C-1.42186661 24.2788501 -1.37888947 23.5577002 -1.33460999 22.81469727 C-1.19979858 20.54326764 -1.06858444 18.27164744 -0.9375 16 C-0.84594244 14.44660046 -0.75414768 12.89321488 -0.66210938 11.33984375 C-0.43866767 7.56005146 -0.21844866 3.78008401 0 0 Z " fill="#080A0A" transform="translate(649,387)"/>
<path d="M0 0 C1.25864256 2.51728513 1.41849733 4.68946767 1.75390625 7.48828125 C1.88603516 8.58720703 2.01816406 9.68613281 2.15429688 10.81835938 C2.28900391 11.97142578 2.42371094 13.12449219 2.5625 14.3125 C2.77036133 16.02469727 2.77036133 16.02469727 2.98242188 17.77148438 C3.54859132 22.54348396 4.08760353 27.1884174 4 32 C0.98410998 33.50794501 -2.15376221 33.19814059 -5.46484375 33.24609375 C-7.00325985 33.27908119 -8.54167117 33.31229187 -10.08007812 33.34570312 C-12.49548438 33.3927296 -14.91087867 33.43706198 -17.32641602 33.47680664 C-34.64101204 33.23274431 -34.64101204 33.23274431 -50 40 C-50.66 40 -51.32 40 -52 40 C-52.27690674 40.58031982 -52.55381348 41.16063965 -52.83911133 41.75854492 C-54.77939138 45.50485642 -57.26532333 48.86544169 -59.6875 52.3125 C-60.44450195 53.41368164 -60.44450195 53.41368164 -61.21679688 54.53710938 C-70.3461663 67.54444104 -82.1936472 75.87185102 -98 79 C-108.95739434 80.29197308 -117.82117034 78.11921978 -127 72 C-133.1346835 71.63700098 -139.03786831 73.42767698 -144 77 C-145.12441195 78.21318131 -146.20626024 79.46675473 -147.25 80.75 C-157.5138634 93.13107289 -174.47469422 98.76011558 -190 101 C-204.12322004 102.18678383 -220.01960367 102.73832707 -231.89453125 93.828125 C-232.58933594 93.22484375 -233.28414062 92.6215625 -234 92 C-231.91840277 88.62392636 -229.83441163 85.24933661 -227.75 81.875 C-227.16347656 80.92367188 -226.57695313 79.97234375 -225.97265625 78.9921875 C-223.0565363 74.27397094 -220.11950594 69.58660031 -217 65 C-216.40574219 65.2165625 -215.81148437 65.433125 -215.19921875 65.65625 C-201.83280911 70.14636584 -189.39852571 67.90096766 -176.83984375 61.8671875 C-175 61 -175 61 -172 60 C-171.31297115 58.67704362 -170.6492959 57.34187818 -170 56 C-160.80212411 45.81221819 -147.72794861 39.79753425 -134.140625 38.68359375 C-124.97710226 38.30468383 -117.06291956 39.58229245 -108.9765625 44.140625 C-106.61859354 45.1658289 -105.16888528 45.15170331 -102.625 44.875 C-101.89539062 44.81054688 -101.16578125 44.74609375 -100.4140625 44.6796875 C-93.99140645 42.87136686 -90.58461124 38.59140624 -87.0625 33.3125 C-86.18983299 32.05527338 -85.31613384 30.79876257 -84.44140625 29.54296875 C-84.02262207 28.93501465 -83.60383789 28.32706055 -83.17236328 27.70068359 C-73.07949596 13.05951038 -61.38514903 5.24711242 -43.94140625 1.63549805 C-37.1861192 0.54630007 -30.45464928 0.42358369 -23.625 0.3125 C-22.21481508 0.27918727 -20.80465772 0.24468584 -19.39453125 0.20898438 C-12.92972286 0.0530513 -6.46667489 -0.04177439 0 0 Z " fill="#080A0A" transform="translate(1862,1344)"/>
<path d="M0 0 C11.06660956 0.5659908 22.00830029 1.59883036 33 3 C32.32311149 33.10097017 27.56083511 61.14803328 5.1796875 83.09375 C2.07356417 85.81021628 -1.3137353 88.03577926 -4.73046875 90.33984375 C-8.92895202 93.41102342 -11.97572267 97.17985982 -14 102 C-14.42102183 107.35453403 -12.7331553 111.75216745 -10.4375 116.5 C-6.08422009 126.47573763 -6.69205848 137.16289813 -10.0625 147.375 C-14.39016575 157.96319346 -20.10618058 167.26077384 -30.1015625 173.26171875 C-32.83333141 175.76302979 -33.2609638 178.26140819 -34.1875 181.8125 C-34.67283203 183.61654297 -34.67283203 183.61654297 -35.16796875 185.45703125 C-36.40644484 190.73072992 -37.13899159 195.6407583 -37.125 201.0625 C-37.12757812 202.06410156 -37.13015625 203.06570313 -37.1328125 204.09765625 C-37.00717336 206.84324098 -36.5687288 209.31816412 -36 212 C-36.54938232 212.4031543 -37.09876465 212.80630859 -37.66479492 213.22167969 C-40.17316938 215.0633581 -42.6803435 216.90666393 -45.1875 218.75 C-46.48397461 219.70132812 -46.48397461 219.70132812 -47.80664062 220.671875 C-48.64775391 221.290625 -49.48886719 221.909375 -50.35546875 222.546875 C-51.5762915 223.44116211 -51.5762915 223.44116211 -52.82177734 224.35351562 C-54.56020882 225.66756874 -56.22618062 227.07729921 -57.86328125 228.515625 C-60 230 -60 230 -62.1484375 230.06640625 C-64.82863495 228.52274823 -65.42177158 226.75926472 -66.625 223.9375 C-67.23214844 222.55884766 -67.23214844 222.55884766 -67.8515625 221.15234375 C-70.17892227 214.76397867 -71.36905124 208.83785274 -71.3125 202 C-71.30686035 201.26652344 -71.3012207 200.53304688 -71.29541016 199.77734375 C-70.96012474 184.29446059 -67.20553405 162.56239819 -56 151 C-54.1520511 149.64967926 -52.2746675 148.33903619 -50.375 147.0625 C-45.49169545 143.73599826 -43.3572519 140.92790421 -41.390625 135.39453125 C-40.58247978 130.44060106 -42.51578339 126.7949749 -44.5625 122.375 C-48.69083801 111.75927368 -48.78694202 99.74262888 -44.9375 89 C-39.26432871 76.49359717 -32.13783747 68.10676006 -20.8125 60.4375 C-10.54337437 53.29031534 -4.84197703 42.44883998 -2.44482422 30.15209961 C-1.99089843 26.93550476 -1.69627492 23.74784885 -1.46484375 20.5078125 C-1.37783203 19.30898437 -1.29082031 18.11015625 -1.20117188 16.875 C-1.11416016 15.6375 -1.02714844 14.4 -0.9375 13.125 C-0.80118164 11.23394531 -0.80118164 11.23394531 -0.66210938 9.3046875 C-0.43890313 6.20329541 -0.21828483 3.10174171 0 0 Z " fill="#080A0A" transform="translate(1505,1058)"/>
<path d="M0 0 C3.54927686 1.18309229 4.00528926 2.07209904 6.03125 5.11328125 C6.59457031 5.94923828 7.15789062 6.78519531 7.73828125 7.64648438 C8.31964844 8.52626953 8.90101563 9.40605469 9.5 10.3125 C10.65559204 12.03820119 11.81182035 13.76347652 12.96875 15.48828125 C13.73348633 16.64130737 13.73348633 16.64130737 14.51367188 17.81762695 C15.96434653 20.03629044 15.96434653 20.03629044 17.75195312 22.03198242 C19 24 19 24 18.86352539 26.05224609 C17.90505308 28.21416075 16.83730508 29.48133869 15.18359375 31.1640625 C11.60576019 35.16978489 9.92923747 39.39456222 8.0625 44.375 C5.23066996 51.4589734 2.4430428 57.51043547 -3 63 C-3.66515625 63.6909375 -4.3303125 64.381875 -5.015625 65.09375 C-14.16565773 73.91464486 -25.71103435 79.38502881 -38.4375 79.25 C-39.16259766 79.25773437 -39.88769531 79.26546875 -40.63476562 79.2734375 C-45.41336916 79.25626372 -49.41583052 78.48060132 -54 77 C-58.3409193 76.24505751 -60.73338222 77.18643148 -64.375 79.4375 C-70.04798721 83.48283484 -74.3030637 88.63205563 -78.6328125 94.0390625 C-88.3652033 105.84017405 -101.16742357 112.18915766 -115 118 C-116.43085937 118.60908203 -116.43085937 118.60908203 -117.890625 119.23046875 C-130.07805545 123.41744082 -145.41253611 121.46583872 -158 120 C-158.17291697 109.2983611 -157.63149942 98.67910627 -157 88 C-154.34611202 86.67305601 -152.43523644 86.95326785 -149.46875 87.04296875 C-147.78652344 87.07487305 -147.78652344 87.07487305 -146.0703125 87.10742188 C-143.72104295 87.16011337 -141.37200809 87.2248885 -139.0234375 87.30273438 C-131.44404895 87.41927395 -125.76407453 86.43817696 -119 83 C-117.75561157 82.37061523 -117.75561157 82.37061523 -116.48608398 81.72851562 C-108.47476867 77.55098075 -103.51504554 72.51031582 -97.98046875 65.48046875 C-89.68784865 55.0942483 -77.23572627 45.78842548 -64 43 C-56.50500226 42.21775509 -50.29978752 42.99418419 -43.203125 45.375 C-39.7206347 46.36294051 -37.43765105 46.08222348 -34 45 C-27.23907946 41.18793727 -24.5072242 36.99716862 -22 29.8125 C-17.43133204 17.94282127 -10.78617092 7.19078061 0 0 Z " fill="#080A0A" transform="translate(1763,1281)"/>
<path d="M0 0 C4.52401034 2.93095182 8.77904729 6.08746439 13 9.4375 C13.59039063 9.90220703 14.18078125 10.36691406 14.7890625 10.84570312 C18.57777101 13.83744762 22.30347315 16.89514284 26 20 C16.33986845 31.88939268 5.13420429 39.14579049 -8.5625 45.6875 C-12.48212519 47.65378062 -15.56181525 49.21660987 -18 53 C-18.30549675 57.82854593 -17.1773517 62.36878923 -15.9375 67 C-12.6066332 81.28967284 -14.83411861 94.42795302 -22.4375 106.8125 C-28.21850003 115.41082283 -34.44202996 122.15300172 -44.11328125 126.3515625 C-47.63960616 128.36524195 -48.54970273 130.0393347 -50.25 133.6875 C-50.72953125 134.68136719 -51.2090625 135.67523437 -51.703125 136.69921875 C-54.96382468 144.99828873 -55.39084307 152.65308522 -55.625 161.5 C-55.810625 167.6875 -55.810625 167.6875 -56 174 C-66.89 174 -77.78 174 -89 174 C-89.30815665 149.19338972 -88.1932859 123.0025515 -70.12109375 103.76171875 C-66.38321507 100.65714548 -62.1545204 98.3314356 -57.97265625 95.8828125 C-53.19754211 92.85836438 -50.18922079 89.24234933 -48 84 C-47.89832749 81.96745149 -47.89832749 81.96745149 -48.25 79.875 C-48.35699219 79.07578125 -48.46398438 78.2765625 -48.57421875 77.453125 C-48.97530663 75.14227007 -49.50890421 72.9031064 -50.0625 70.625 C-52.57764537 58.00997401 -52.54039634 46.18491397 -45.96875 34.9453125 C-45.3190625 33.97335937 -44.669375 33.00140625 -44 32 C-43.4946875 31.23429687 -42.989375 30.46859375 -42.46875 29.6796875 C-35.17895289 20.19551269 -23.04790537 14.91269497 -12.50610352 9.89648438 C-7.32280186 7.35395067 -3.72785044 4.47342052 0 0 Z " fill="#080A0A" transform="translate(1568,1123)"/>
<path d="M0 0 C4.70034576 3.22984653 8.82844901 6.7264573 12.8125 10.8125 C19.807206 17.93515794 27.46293271 24.02966808 35.625 29.75 C36.44629395 30.33334106 36.44629395 30.33334106 37.28417969 30.9284668 C40.4600546 33.12821319 43.4540535 34.55960571 47.0625 35.875 C49.21875 37.01953125 49.21875 37.01953125 51 39 C52.11849176 42.69933591 52.84756883 46.28196141 53.48583984 50.0847168 C56.65349666 68.60453215 65.99500092 85.94762823 77 101 C76.67 101.66 76.34 102.32 76 103 C67.61676068 94.70972392 59.24456651 86.40846505 50.8860302 78.09327888 C47.00386257 74.23192437 43.11808905 70.37435399 39.22363281 66.52539062 C35.46056229 62.80600127 31.70754508 59.07672931 27.9610939 55.34060287 C26.53498021 53.92184063 25.10536909 52.50658442 23.67211533 51.09503555 C14.89785778 42.44832488 7.11873982 34.37656993 2.6875 22.625 C2.38199219 21.83351563 2.07648438 21.04203125 1.76171875 20.2265625 C0.17193386 15.57949898 -0.10837534 11.70453725 -0.0625 6.75 C-0.05347656 5.48671875 -0.04445313 4.2234375 -0.03515625 2.921875 C-0.02355469 1.95765625 -0.01195312 0.9934375 0 0 Z " fill="#FDFDFD" transform="translate(1354,1286)"/>
<path d="M0 0 C2.53604144 3.80406216 2.60198813 5.48508904 2 10 C-2.70880918 17.13048248 -10.10109285 22.09476845 -17 27 C-17.33 27 -17.66 27 -18 27 C-18.83654471 20.18813596 -18.83654471 20.18813596 -16.65234375 17.0859375 C-13.89591614 14.33556798 -10.91222312 11.92819661 -7.875 9.5 C-4.53954417 6.59960362 -2.44494035 3.66741052 0 0 Z " fill="#F6F7F7" transform="translate(636,551)"/>
</g>
</svg>
